<svg width="80" height="67" viewBox="0 0 236 37" fill="none" xmlns="http://www.w3.org/2000/svg">
<g clip-path="url(#clip0_417_5596)">
<mask id="mask0_417_5596" style="mask-type:luminance" maskUnits="userSpaceOnUse" x="33" y="0" width="170" height="37">
<path d="M203 0H33V36.4286H203V0Z" fill="white"/>
</mask>
<g mask="url(#mask0_417_5596)">
<path d="M56.15 5.26084V34.6842C56.1479 34.9908 56.029 35.2842 55.8197 35.4998C55.6103 35.7153 55.3272 35.8355 55.0327 35.8341H54.4467C54.1522 35.8355 53.8693 35.7153 53.6598 35.4998C53.4504 35.2842 53.3315 34.9908 53.3294 34.6842C53.3263 34.4626 53.2626 34.2465 53.1456 34.0613C53.0285 33.8761 52.8633 33.7296 52.669 33.639C52.4747 33.5484 52.2596 33.5174 52.0491 33.5498C51.8385 33.5822 51.6412 33.6765 51.4803 33.8218C50.8076 34.396 50.0736 34.8873 49.2926 35.2863C47.767 36.0516 46.0924 36.4405 44.3991 36.4226C42.8926 36.4469 41.3975 36.1462 40.0081 35.5394C38.6186 34.9327 37.3649 34.0329 36.3256 32.8969C34.3792 30.892 33.207 28.2131 33.0311 25.3682C32.8996 23.4774 33.1897 21.5804 33.8786 19.8256C34.5676 18.0708 35.6368 16.5056 37.0027 15.2521C39.0589 13.3442 41.7285 12.3104 44.4824 12.3558C46.2008 12.3319 47.8989 12.7433 49.4308 13.5544C50.1634 13.9527 50.8472 14.4418 51.4673 15.0108C51.6263 15.1602 51.8234 15.2587 52.0348 15.2942C52.2462 15.3297 52.4631 15.301 52.6593 15.2113C52.8554 15.1216 53.0225 14.975 53.1404 14.7887C53.2583 14.6026 53.3222 14.385 53.3242 14.1619V5.26084C53.3263 4.95423 53.445 4.66098 53.6545 4.44545C53.864 4.22976 54.147 4.10955 54.4415 4.11091H55.0327C55.3272 4.10955 55.6103 4.22976 55.8197 4.44545C56.029 4.66098 56.1479 4.95423 56.15 5.26084ZM44.7193 15.187C43.1725 15.1747 41.6505 15.5923 40.3103 16.3968C38.96 17.2041 37.8469 18.38 37.0912 19.7977C36.3051 21.2006 35.8907 22.7959 35.8907 24.4203C35.8907 26.0447 36.3051 27.64 37.0912 29.0431C37.8521 30.4714 38.9697 31.6587 40.3259 32.4792C41.6467 33.289 43.1528 33.7134 44.6855 33.7079C46.2489 33.7113 47.7862 33.2917 49.1468 32.4901C50.5007 31.7274 51.6221 30.5849 52.3841 29.1923C53.15 27.7607 53.5407 26.1444 53.517 24.5058C53.517 21.8588 52.6697 19.6448 50.975 17.8639C50.1646 16.9945 49.1909 16.3083 48.1146 15.8477C47.0385 15.3872 45.8828 15.1623 44.7193 15.187Z" fill="#F7FAFC"/>
<path d="M82.1481 28.8541C82.3169 28.9438 82.4661 29.069 82.5862 29.2217C82.7062 29.3745 82.7946 29.5515 82.8457 29.7416C82.8969 29.9316 82.9096 30.1306 82.8832 30.3261C82.857 30.5216 82.7919 30.7092 82.6924 30.8772C82.1342 31.8131 81.458 32.6669 80.6819 33.4158C79.6628 34.3865 78.4758 35.1467 77.1841 35.6559C75.7756 36.1872 74.2859 36.4472 72.7879 36.4235C69.1592 36.4235 66.3222 35.1995 64.277 32.7513C62.2317 30.3032 61.209 27.5369 61.209 24.4524C61.1845 21.6285 62.1054 18.8839 63.8133 16.6904C66.0063 13.7975 68.9449 12.3512 72.6292 12.3512C76.4194 12.3547 79.443 13.8364 81.7002 16.7962C83.1065 18.6242 83.9087 20.8471 84.1066 23.4652C84.1157 23.6122 84.0962 23.7594 84.049 23.8983C84.0018 24.037 83.9278 24.1643 83.8319 24.2724C83.7358 24.3805 83.6197 24.4672 83.4905 24.527C83.3614 24.5868 83.2219 24.6186 83.0806 24.6205H65.2562C65.1114 24.6224 64.9687 24.6557 64.837 24.7181C64.7052 24.7806 64.5874 24.8711 64.4912 24.9835C64.395 25.096 64.3221 25.2282 64.2776 25.3717C64.2331 25.5151 64.2178 25.6666 64.2327 25.8165C64.4288 27.8282 65.2733 29.7114 66.6286 31.1594C67.3901 31.9883 68.3091 32.6431 69.3269 33.0821C70.3448 33.5209 71.4392 33.7344 72.5405 33.7086C73.6679 33.7091 74.7865 33.5034 75.8455 33.1012C76.8435 32.736 77.7693 32.1846 78.5775 31.4739C79.2507 30.8367 79.8424 30.1121 80.3381 29.3178C80.5342 29.0247 80.8261 28.816 81.1591 28.7305C81.4923 28.6452 81.8438 28.6891 82.1481 28.8541ZM79.6166 22.0765C79.7792 22.0791 79.9401 22.0407 80.0854 21.9647C80.2306 21.8886 80.3562 21.7772 80.4513 21.6398C80.5463 21.5025 80.6083 21.3433 80.6316 21.1757C80.655 21.008 80.6392 20.8371 80.5855 20.6772C80.2939 19.8239 79.8717 19.0253 79.3354 18.3123C78.6258 17.4129 77.7372 16.6847 76.731 16.1778C75.3996 15.493 73.9289 15.1533 72.4443 15.1879C70.4479 15.1982 68.5243 15.9702 67.0375 17.3577C66.0909 18.272 65.3621 19.404 64.9098 20.6636C64.8511 20.8242 64.831 20.997 64.8514 21.1675C64.8717 21.3379 64.9317 21.5005 65.0262 21.6412C65.1208 21.7819 65.2469 21.8964 65.3937 21.9747C65.5405 22.0529 65.7033 22.0926 65.8682 22.0902L79.6166 22.0765Z" fill="#F7FAFC"/>
<path d="M89.2145 12.9477C89.4762 12.9457 89.7332 13.0211 89.9554 13.165C90.1776 13.3091 90.3559 13.5158 90.4698 13.7612L96.2983 26.7928C96.4108 27.0411 96.5889 27.2512 96.8115 27.3983C97.0342 27.5454 97.2925 27.6234 97.5562 27.6234C97.82 27.6234 98.0782 27.5454 98.301 27.3983C98.5237 27.2512 98.7017 27.0411 98.8142 26.7928L104.567 13.7749C104.679 13.5251 104.856 13.3138 105.08 13.1662C105.304 13.0187 105.564 12.9408 105.828 12.9422H105.849C106.078 12.9398 106.306 12.9978 106.508 13.111C106.711 13.2242 106.883 13.3891 107.009 13.59C107.135 13.7908 107.209 14.0216 107.226 14.2606C107.243 14.4997 107.202 14.7392 107.106 14.9573L97.8245 35.8403H97.3036L87.9513 14.9655C87.855 14.7469 87.8134 14.5065 87.8304 14.2665C87.8474 14.0267 87.9224 13.7952 88.0485 13.5938C88.1746 13.3923 88.3477 13.2274 88.5517 13.1143C88.7555 13.0014 88.9835 12.944 89.2145 12.9477Z" fill="#F7FAFC"/>
<path d="M148.355 12.9479C148.62 12.9467 148.878 13.0266 149.1 13.1776C149.322 13.3285 149.496 13.5438 149.601 13.7969L154.848 26.5789C154.953 26.8301 155.124 27.0443 155.344 27.1954C155.563 27.3465 155.82 27.428 156.084 27.4299C156.346 27.4321 156.604 27.3545 156.826 27.2067C157.046 27.059 157.222 26.8474 157.33 26.5979L163.164 12.9371H163.685L169.573 26.6385C169.682 26.8869 169.857 27.0971 170.077 27.2442C170.297 27.3912 170.553 27.4687 170.816 27.4673C171.077 27.4659 171.334 27.3856 171.552 27.2361C171.771 27.0866 171.944 26.8744 172.05 26.625L177.423 13.7779C177.528 13.5274 177.703 13.3145 177.923 13.1653C178.143 13.0159 178.399 12.9367 178.662 12.9371H178.689C178.911 12.9347 179.131 12.9904 179.328 13.099C179.524 13.2075 179.692 13.3656 179.815 13.5589C179.938 13.7521 180.013 13.9743 180.032 14.2053C180.052 14.4363 180.017 14.6689 179.928 14.8817L171.089 35.8243H170.569L164.679 22.2911C164.572 22.0454 164.397 21.8371 164.178 21.6911C163.96 21.5452 163.706 21.4675 163.447 21.4675C163.187 21.4675 162.932 21.5452 162.714 21.6911C162.495 21.8371 162.322 22.0454 162.213 22.2911L156.34 35.8352H155.82L147.113 14.8844C147.027 14.6718 146.992 14.44 147.011 14.2099C147.033 13.9796 147.109 13.7585 147.232 13.5663C147.354 13.3741 147.521 13.217 147.719 13.109C147.915 13.001 148.133 12.9458 148.355 12.9479Z" fill="#F7FAFC"/>
<path d="M186.397 22.3395C186.397 18.3284 189.639 15.3994 193.569 15.5404C197.312 15.6732 200.199 18.9848 200.199 22.8468V34.3948C200.202 34.7787 200.351 35.1457 200.614 35.4156C200.876 35.6856 201.23 35.8363 201.599 35.8348C201.966 35.8363 202.321 35.6854 202.582 35.4154C202.843 35.1455 202.992 34.7784 202.994 34.3948V22.6976C202.994 17.1867 198.806 12.446 193.452 12.3592C192.173 12.3293 190.901 12.5648 189.709 13.0524C188.519 13.5399 187.434 14.2694 186.516 15.1985C185.599 16.1275 184.869 17.2374 184.368 18.4635C183.867 19.6895 183.606 21.0072 183.6 22.3395V34.3948C183.6 34.585 183.638 34.7731 183.708 34.9484C183.779 35.1237 183.882 35.2828 184.013 35.4165C184.142 35.5502 184.297 35.656 184.465 35.7278C184.635 35.7996 184.816 35.8359 184.998 35.8348C185.367 35.8363 185.72 35.6854 185.981 35.4154C186.244 35.1455 186.391 34.7784 186.394 34.3948L186.397 22.3395Z" fill="#F7FAFC"/>
<path d="M101.924 9.37813H66.9497C66.7595 9.393 66.5684 9.3669 66.3884 9.30133C66.2084 9.23591 66.0434 9.13224 65.9034 8.9973C65.7636 8.86221 65.6521 8.69858 65.5759 8.51644C65.4995 8.33445 65.4602 8.13804 65.4602 7.93935C65.4602 7.74082 65.4995 7.54441 65.5759 7.36226C65.6521 7.18027 65.7636 7.01665 65.9034 6.88156C66.0434 6.74647 66.2084 6.64295 66.3884 6.57738C66.5684 6.51196 66.7595 6.4857 66.9497 6.50073H101.924C102.113 6.4857 102.305 6.51196 102.485 6.57738C102.664 6.64295 102.83 6.74647 102.97 6.88156C103.109 7.01665 103.221 7.18027 103.297 7.36226C103.373 7.54441 103.413 7.74082 103.413 7.93935C103.413 8.13804 103.373 8.33445 103.297 8.51644C103.221 8.69858 103.109 8.86221 102.97 8.9973C102.83 9.13224 102.664 9.23591 102.485 9.30133C102.305 9.3669 102.113 9.393 101.924 9.37813Z" fill="#F7FAFC"/>
<path d="M140.34 16.1961C138.092 13.6522 135.225 12.364 131.815 12.364C128.406 12.364 125.516 13.6603 123.273 16.2179C121.271 18.4916 120.175 21.4739 120.207 24.5589C120.239 27.644 121.397 30.6009 123.444 32.8293C125.604 35.2158 128.42 36.4281 131.815 36.4281C135.212 36.4281 138.008 35.2158 140.168 32.8293C142.217 30.5967 143.375 27.6364 143.407 24.548C143.439 21.4596 142.342 18.4742 140.34 16.1961ZM137.676 30.3151C136.16 31.9913 134.186 32.8401 131.812 32.8401C129.44 32.8401 127.453 31.9913 125.938 30.3151C124.498 28.7517 123.683 26.6754 123.661 24.5089C123.639 22.3424 124.41 20.2485 125.818 18.6533C126.585 17.8001 127.512 17.1196 128.541 16.6538C129.572 16.1881 130.682 15.9471 131.805 15.9456C132.926 15.944 134.038 16.182 135.068 16.645C136.1 17.1079 137.028 17.7858 137.797 18.637C139.204 20.2359 139.974 22.3315 139.951 24.4993C139.928 26.6672 139.116 28.7452 137.677 30.3124L137.676 30.3151Z" fill="#F7FAFC"/>
<path d="M198.987 9.5224H108.664C106.665 9.55215 106.666 6.32489 108.664 6.35464H198.987C200.982 6.32489 200.982 9.55488 198.987 9.5224Z" fill="#F7FAFC"/>
<path d="M113.325 34.2534V1.54308C113.294 -0.515393 116.541 -0.512676 116.511 1.54308V34.2534C116.538 36.301 113.294 36.3174 113.325 34.2534Z" fill="#F7FAFC"/>
</g>
</g>
<defs>
<clipPath id="clip0_417_5596">
<rect width="236" height="36.4286" fill="white"/>
</clipPath>
</defs>
</svg>
