<svg width="271" height="57" viewBox="0 0 271 57" fill="none" xmlns="http://www.w3.org/2000/svg">
<g clip-path="url(#clip0_326_20812)">
<g clip-path="url(#clip1_326_20812)">
<path d="M37.3339 8.75727V53.7018C37.3306 54.1702 37.1416 54.6182 36.8084 54.9475C36.4753 55.2768 36.0251 55.4605 35.5566 55.4583H34.6245C34.1561 55.4605 33.7059 55.2768 33.3727 54.9475C33.0395 54.6182 32.8506 54.1702 32.8473 53.7018C32.8424 53.3632 32.741 53.0331 32.5549 52.7502C32.3688 52.4674 32.1057 52.2436 31.7967 52.1052C31.4877 51.9668 31.1455 51.9195 30.8106 51.969C30.4756 52.0185 30.1618 52.1626 29.9059 52.3844C28.8358 53.2614 27.6682 54.0121 26.426 54.6215C23.9992 55.7907 21.3355 56.3847 18.6418 56.3573C16.2455 56.3944 13.8673 55.935 11.6571 55.0082C9.44694 54.0813 7.45251 52.707 5.79937 50.9717C2.70347 47.9092 0.838792 43.8172 0.558811 39.4715C0.349703 36.5832 0.811131 33.6856 1.90705 31.005C3.00298 28.3245 4.70373 25.9336 6.87648 24.0191C10.1474 21.1046 14.394 19.5255 18.7744 19.5947C21.5077 19.5584 24.2089 20.1868 26.6456 21.4258C27.8111 22.0342 28.8989 22.7811 29.8852 23.6504C30.1382 23.8786 30.4517 24.0289 30.788 24.0832C31.1243 24.1376 31.4692 24.0936 31.7812 23.9567C32.0931 23.8197 32.3589 23.5956 32.5466 23.3113C32.7342 23.0269 32.8358 22.6944 32.839 22.3537V8.75727C32.8423 8.28884 33.0312 7.84083 33.3644 7.51153C33.6976 7.18224 34.1478 6.99855 34.6162 7.00075H35.5566C36.0251 6.99855 36.4753 7.18224 36.8084 7.51153C37.1416 7.84083 37.3306 8.28884 37.3339 8.75727ZM19.1514 23.9197C16.6908 23.9008 14.2697 24.5386 12.1378 25.7673C9.98989 27.0006 8.21944 28.7969 7.01733 30.9623C5.76676 33.1055 5.10779 35.5423 5.10779 38.0236C5.10779 40.5049 5.76676 42.9418 7.01733 45.0849C8.22753 47.2666 10.0054 49.0803 12.1626 50.3337C14.2639 51.5705 16.6593 52.2188 19.0975 52.2104C21.5843 52.2157 24.0297 51.5747 26.194 50.3503C28.3476 49.1854 30.1315 47.4402 31.3435 45.3128C32.5618 43.1259 33.1833 40.6571 33.1455 38.1541C33.1455 34.1108 31.7978 30.729 29.1022 28.0086C27.813 26.6806 26.2642 25.6322 24.5522 24.9288C22.8403 24.2253 21.0019 23.8818 19.1514 23.9197Z" fill="#0859DE"/>
<path d="M78.6872 44.7954C78.9558 44.9325 79.1931 45.1237 79.3841 45.357C79.5751 45.5904 79.7157 45.8607 79.797 46.1511C79.8784 46.4414 79.8987 46.7454 79.8567 47.044C79.8147 47.3426 79.7113 47.6293 79.5531 47.8859C78.6651 49.3156 77.5894 50.6197 76.3549 51.7635C74.7338 53.2463 72.8458 54.4075 70.7912 55.1854C68.5505 55.9968 66.181 56.394 63.7983 56.3578C58.026 56.3578 53.5132 54.4881 50.2598 50.7486C47.0064 47.009 45.3797 42.7835 45.3797 38.0718C45.3407 33.7583 46.8056 29.5659 49.5224 26.2153C53.0106 21.7964 57.685 19.5869 63.5455 19.5869C69.5746 19.5924 74.3843 21.8558 77.9747 26.3769C80.2118 29.1691 81.4877 32.5647 81.8026 36.5638C81.8172 36.7883 81.786 37.0133 81.7109 37.2253C81.6357 37.4373 81.5182 37.6317 81.3655 37.7968C81.2128 37.962 81.0281 38.0942 80.8226 38.1857C80.6172 38.2771 80.3952 38.3257 80.1703 38.3286H51.8175C51.5872 38.3315 51.3601 38.3822 51.1506 38.4777C50.9411 38.5732 50.7538 38.7112 50.6006 38.8831C50.4474 39.055 50.3317 39.2569 50.2609 39.476C50.1901 39.6951 50.1658 39.9266 50.1894 40.1556C50.5014 43.2284 51.8448 46.105 54.0007 48.3168C55.212 49.5831 56.6737 50.5833 58.2928 51.2537C59.9118 51.9242 61.6528 52.2502 63.4047 52.2109C65.1979 52.2115 66.9772 51.8974 68.6618 51.283C70.2493 50.7251 71.7219 49.8828 73.0075 48.7973C74.0783 47.824 75.0195 46.7171 75.808 45.5039C76.1199 45.0561 76.5842 44.7372 77.1141 44.6068C77.644 44.4764 78.2032 44.5435 78.6872 44.7954ZM74.6605 34.4428C74.9192 34.4466 75.1749 34.3879 75.406 34.2718C75.6372 34.1556 75.8369 33.9854 75.9881 33.7755C76.1394 33.5657 76.2378 33.3225 76.275 33.0665C76.3121 32.8105 76.287 32.5493 76.2016 32.3051C75.7377 31.0017 75.0662 29.7818 74.2131 28.6926C73.0843 27.3189 71.6709 26.2066 70.0704 25.4323C67.9524 24.3862 65.613 23.8674 63.2514 23.9202C60.0758 23.936 57.0161 25.1151 54.6511 27.2344C53.1451 28.6312 51.9861 30.3605 51.2665 32.2844C51.1732 32.5295 51.1413 32.7937 51.1735 33.054C51.2058 33.3143 51.3013 33.5628 51.4517 33.7777C51.602 33.9926 51.8027 34.1674 52.0361 34.287C52.2696 34.4065 52.5288 34.4671 52.791 34.4635L74.6605 34.4428Z" fill="#0859DE"/>
<path d="M89.9361 20.4979C90.3525 20.4949 90.7611 20.61 91.1146 20.83C91.468 21.05 91.7518 21.3658 91.9329 21.7407L101.204 41.6466C101.383 42.026 101.666 42.3467 102.021 42.5714C102.375 42.796 102.786 42.9153 103.205 42.9153C103.625 42.9153 104.036 42.796 104.39 42.5714C104.744 42.3467 105.027 42.026 105.206 41.6466L114.358 21.7614C114.535 21.3798 114.818 21.0572 115.174 20.8318C115.529 20.6063 115.942 20.4876 116.363 20.4896H116.396C116.762 20.4858 117.123 20.5745 117.446 20.7475C117.768 20.9205 118.042 21.1721 118.242 21.479C118.441 21.786 118.56 22.1384 118.587 22.5035C118.614 22.8686 118.549 23.2346 118.397 23.5677L103.632 55.4667H102.803L87.9269 23.5801C87.7736 23.2462 87.7074 22.879 87.7344 22.5126C87.7614 22.1462 87.8808 21.7926 88.0815 21.4849C88.2821 21.1771 88.5574 20.9252 88.8817 20.7526C89.206 20.58 89.5688 20.4924 89.9361 20.4979Z" fill="#0859DE"/>
<path d="M184.003 20.4981C184.424 20.4963 184.836 20.6182 185.189 20.8488C185.541 21.0793 185.817 21.4083 185.984 21.7948L194.331 41.3195C194.498 41.7033 194.772 42.0304 195.121 42.2612C195.469 42.4921 195.878 42.6166 196.296 42.6196C196.714 42.6227 197.124 42.5042 197.476 42.2785C197.828 42.0529 198.107 41.7298 198.279 41.3485L207.559 20.4816H208.388L217.754 41.4106C217.927 41.7899 218.205 42.1112 218.555 42.3358C218.906 42.5604 219.314 42.6788 219.731 42.6766C220.147 42.6744 220.554 42.5517 220.903 42.3234C221.251 42.0951 221.526 41.7709 221.694 41.3899L230.241 21.7658C230.409 21.3832 230.685 21.058 231.035 20.83C231.385 20.6019 231.795 20.4808 232.212 20.4816H232.254C232.608 20.4779 232.958 20.5628 233.271 20.7287C233.584 20.8946 233.851 21.1361 234.047 21.4312C234.242 21.7264 234.362 22.0659 234.393 22.4188C234.424 22.7717 234.367 23.1268 234.226 23.4519L220.165 55.4421H219.337L209.97 34.7698C209.798 34.3944 209.521 34.0764 209.174 33.8534C208.826 33.6304 208.422 33.5119 208.009 33.5119C207.595 33.5119 207.191 33.6304 206.843 33.8534C206.496 34.0764 206.219 34.3944 206.047 34.7698L196.705 55.4587H195.877L182.027 23.456C181.889 23.1312 181.834 22.7771 181.867 22.4256C181.899 22.074 182.019 21.7362 182.215 21.4427C182.412 21.1491 182.678 20.909 182.99 20.7441C183.302 20.5792 183.65 20.4947 184.003 20.4981Z" fill="#0859DE"/>
<path d="M244.514 34.8441C244.514 28.717 249.671 24.2428 255.923 24.4583C261.876 24.6613 266.47 29.7195 266.47 35.6188V53.2585C266.475 53.8449 266.711 54.4057 267.128 54.818C267.545 55.2303 268.108 55.4605 268.695 55.4583C269.281 55.4605 269.844 55.2301 270.26 54.8177C270.676 54.4053 270.912 53.8445 270.915 53.2585V35.3909C270.915 26.9729 264.254 19.7314 255.736 19.5988C253.702 19.5532 251.678 19.9131 249.784 20.6578C247.89 21.4024 246.163 22.5168 244.704 23.9359C243.246 25.3551 242.084 27.0505 241.287 28.9233C240.491 30.7962 240.075 32.8089 240.064 34.8441V53.2585C240.066 53.5491 240.125 53.8364 240.238 54.1042C240.35 54.372 240.515 54.6149 240.721 54.8192C240.928 55.0235 241.173 55.185 241.442 55.2947C241.711 55.4044 241.999 55.46 242.289 55.4583C242.875 55.4605 243.438 55.2301 243.854 54.8177C244.271 54.4053 244.506 53.8445 244.51 53.2585L244.514 34.8441Z" fill="#0859DE"/>
<path d="M110.149 15.0455H54.5158C54.2133 15.0682 53.9093 15.0283 53.623 14.9282C53.3366 14.828 53.074 14.6699 52.8516 14.4636C52.6292 14.2573 52.4518 14.0073 52.3304 13.7292C52.2091 13.4512 52.1465 13.1511 52.1465 12.8477C52.1465 12.5444 52.2091 12.2443 52.3304 11.9662C52.4518 11.6882 52.6292 11.4382 52.8516 11.2319C53.074 11.0256 53.3366 10.8674 53.623 10.7673C53.9093 10.6672 54.2133 10.6272 54.5158 10.65H110.149C110.451 10.6272 110.755 10.6672 111.041 10.7673C111.328 10.8674 111.59 11.0256 111.813 11.2319C112.035 11.4382 112.213 11.6882 112.334 11.9662C112.455 12.2443 112.518 12.5444 112.518 12.8477C112.518 13.1511 112.455 13.4512 112.334 13.7292C112.213 14.0073 112.035 14.2573 111.813 14.4636C111.59 14.6699 111.328 14.828 111.041 14.9282C110.755 15.0283 110.451 15.0682 110.149 15.0455Z" fill="#0859DE"/>
<path d="M171.25 25.4618C167.675 21.576 163.114 19.6082 157.691 19.6082C152.268 19.6082 147.669 21.5884 144.103 25.495C140.917 28.9683 139.173 33.5236 139.224 38.2361C139.275 42.9487 141.117 47.4653 144.376 50.8692C147.81 54.5148 152.289 56.3666 157.691 56.3666C163.093 56.3666 167.542 54.5148 170.976 50.8692C174.236 47.4588 176.078 42.937 176.129 38.2195C176.18 33.502 174.436 28.9416 171.25 25.4618ZM167.012 47.0289C164.601 49.5891 161.461 50.8858 157.687 50.8858C153.913 50.8858 150.752 49.5891 148.341 47.0289C146.049 44.6407 144.754 41.4691 144.719 38.1598C144.683 34.8504 145.91 31.6519 148.15 29.2152C149.371 27.9118 150.845 26.8724 152.483 26.1611C154.121 25.4497 155.887 25.0815 157.673 25.0792C159.459 25.0769 161.226 25.4404 162.865 26.1475C164.505 26.8546 165.983 27.8901 167.207 29.1903C169.443 31.6327 170.667 34.8338 170.632 38.1451C170.597 41.4565 169.304 44.6307 167.016 47.0248L167.012 47.0289Z" fill="#6422CD"/>
<path d="M264.543 15.2675H120.869C117.687 15.3131 117.692 10.3832 120.869 10.4288H264.543C267.717 10.3832 267.717 15.3172 264.543 15.2675Z" fill="#6422CD"/>
<path d="M128.282 53.0434V3.07789C128.232 -0.0664457 133.398 -0.0623029 133.348 3.07789V53.0434C133.394 56.1712 128.232 56.196 128.282 53.0434Z" fill="#6422CD"/>
</g>
</g>
<defs>
<clipPath id="clip0_326_20812">
<rect width="270.472" height="55.6452" fill="white" transform="translate(0.476562 0.71875)"/>
</clipPath>
<clipPath id="clip1_326_20812">
<rect width="270.417" height="55.6452" fill="white" transform="translate(0.505859 0.718994)"/>
</clipPath>
</defs>
</svg>
