<svg width="2325" height="1764" viewBox="0 0 2325 1764" fill="none" xmlns="http://www.w3.org/2000/svg">
<path d="M613.315 443.867C549.273 570.836 180.468 392.595 79.9856 544.848C-18.5237 694.12 142.265 820.298 74.8106 1161.01C38.5294 1344.27 -27.8304 1408.05 12.6751 1520.88C54.4551 1637.27 178.387 1717.9 289.692 1746.12C519.302 1804.33 619.328 1620.27 877.392 1683.99C966.194 1705.91 996.427 1738.09 1089.69 1738.35C1112.02 1738.41 1286.08 1739.06 1377.06 1637.38C1518.22 1479.65 1284.86 1270.78 1329.16 786.73C1336.57 705.827 1351.91 615.278 1301.98 520.874C1232.8 390.061 1087.11 345.465 1030.97 327.042C894.402 282.235 686.407 275.822 630.736 371.921C612.74 402.986 627.735 415.314 613.315 443.867Z" fill="#F4F7FA"/>
<path d="M569.881 1108.93C539.758 1114.97 506.764 1103.7 486.994 1078.03L208.164 716.002C182.78 683.035 188.957 636.376 222.096 611.535C255.471 586.52 318.499 588.561 344.391 621.813L628.798 987.077C655.585 1021.53 648.488 1068.94 613.041 1092.76C604.308 1098.6 579.817 1106.94 569.881 1108.93Z" fill="url(#paint0_linear_22_79)"/>
<path d="M138.668 925.585L36.6741 1579.9C34.7367 1592.51 43.7351 1603.91 55.2156 1603.37L565.702 1579.28L138.668 925.585Z" fill="url(#paint1_linear_22_79)"/>
<path d="M1072.39 939.219L158.273 910.954C144.912 910.543 136.175 920.755 138.786 933.761L287.066 1678.46C289.636 1691.46 302.375 1701.24 315.439 1700.29L1211.04 1635.6C1221.18 1634.87 1227.52 1625.03 1225.25 1613.62L1095.2 960.458C1092.93 949.029 1082.73 939.538 1072.39 939.219Z" fill="url(#paint2_linear_22_79)"/>
<path d="M1077.33 939.219L163.206 910.954C149.845 910.543 141.109 920.755 143.719 933.761L292 1678.46C294.569 1691.46 307.309 1701.24 320.372 1700.29L1215.97 1635.6C1226.11 1634.87 1232.46 1625.03 1230.18 1613.62L1100.14 960.458C1097.87 949.029 1087.68 939.538 1077.33 939.219Z" fill="url(#paint3_linear_22_79)"/>
<g style="mix-blend-mode:multiply" opacity="0.3">
<path d="M838.763 1333.82C658.841 1236.06 488.34 1312.06 365.575 1186.66C289.98 1109.45 276.105 1000.12 278.371 914.511L163.206 910.944C149.845 910.533 141.109 920.744 143.719 933.751L292 1678.46C294.569 1691.46 307.309 1701.24 320.372 1700.29L1097.44 1644.14C1012.51 1459.78 916.752 1376.2 838.763 1333.82Z" fill="url(#paint4_linear_22_79)"/>
</g>
<path d="M1185.39 1610.77L337.002 1668.68C322.906 1669.64 309.169 1659.02 306.368 1644.95L174.271 981.508C171.47 967.437 180.879 956.327 195.238 956.686L1059.48 978.414C1070.78 978.697 1081.89 988.99 1084.37 1001.41L1200.94 1586.91C1203.42 1599.34 1196.47 1610.02 1185.39 1610.77Z" fill="#D8DEE8"/>
<path d="M1189.19 1610.51L341.822 1668.35C327.747 1669.31 314.026 1658.69 311.225 1644.63L179.214 981.626C176.414 967.566 185.813 956.445 200.151 956.82L1063.36 978.517C1074.63 978.805 1085.74 989.093 1088.21 1001.5L1204.73 1586.68C1207.2 1599.11 1200.26 1609.75 1189.19 1610.51Z" fill="url(#paint5_linear_22_79)"/>
<path d="M630.166 1196.07L537.664 1196.64C534.889 1196.64 532.181 1194.36 531.615 1191.53L516.312 1114.68C515.746 1111.84 517.545 1109.54 520.325 1109.57L613.038 1110.08C615.751 1110.08 618.398 1112.38 618.953 1115.18L634.041 1190.96C634.606 1193.76 632.874 1196.05 630.166 1196.07ZM540.64 1186.33L623.244 1185.94L610.155 1120.21L527.417 1119.86L540.64 1186.33Z" fill="#D8DEE8"/>
<path d="M747.052 1195.34L657.541 1195.9C654.859 1195.9 652.228 1193.66 651.673 1190.87L636.62 1115.27C636.06 1112.47 637.792 1110.22 640.485 1110.23L730.232 1110.75C732.858 1110.75 735.428 1113.01 735.978 1115.76L750.824 1190.33C751.348 1193.08 749.673 1195.33 747.052 1195.34ZM660.363 1185.76L740.32 1185.38L727.432 1120.71L647.33 1120.37L660.363 1185.76Z" fill="#D8DEE8"/>
<path d="M860.254 1194.64L773.539 1195.16C770.938 1195.16 768.4 1192.96 767.834 1190.21L753.024 1115.84C752.474 1113.09 754.144 1110.87 756.755 1110.89L843.676 1111.37C846.214 1111.37 848.712 1113.6 849.251 1116.31L863.867 1189.7C864.406 1192.41 862.787 1194.63 860.254 1194.64ZM776.252 1185.2L853.697 1184.83L841.003 1121.19L763.405 1120.86L776.252 1185.2Z" fill="#D8DEE8"/>
<path d="M969.935 1193.96L885.908 1194.48C883.39 1194.48 880.908 1192.31 880.373 1189.61L865.794 1116.39C865.28 1113.68 866.863 1111.5 869.391 1111.51L953.614 1111.98C956.081 1111.98 958.506 1114.17 959.036 1116.84L973.425 1189.09C973.954 1191.77 972.397 1193.95 969.935 1193.96ZM888.513 1184.67L963.542 1184.31L951.08 1121.65L875.907 1121.33L888.513 1184.67Z" fill="#D8DEE8"/>
<path d="M1076.27 1193.31L994.803 1193.82C992.362 1193.82 989.952 1191.69 989.422 1189.02L975.069 1116.94C974.555 1114.27 976.097 1112.12 978.538 1112.14L1060.19 1112.59C1062.58 1112.59 1064.94 1114.75 1065.46 1117.38L1079.63 1188.51C1080.16 1191.15 1078.65 1193.29 1076.27 1193.31ZM997.3 1184.14L1070.05 1183.79L1057.77 1122.1L984.885 1121.79L997.3 1184.14Z" fill="#D8DEE8"/>
<path d="M405.433 1302.32L306.831 1304.31C305.331 1304.29 303.882 1303.76 302.717 1302.82C301.553 1301.87 300.741 1300.56 300.412 1299.1L284.589 1219.63C284.009 1216.69 285.936 1214.29 288.906 1214.27L387.739 1213.45C389.211 1213.5 390.624 1214.04 391.758 1214.98C392.892 1215.92 393.683 1217.21 394.009 1218.65L409.606 1296.97C410.181 1299.87 408.3 1302.27 405.433 1302.32ZM310.068 1293.59L398.12 1291.94L384.594 1224L296.383 1224.85L310.068 1293.59Z" fill="#D8DEE8"/>
<path d="M529.915 1299.82L434.576 1301.74C431.714 1301.8 428.923 1299.5 428.353 1296.6L412.792 1218.49C412.216 1215.6 414.076 1213.24 416.944 1213.21L512.529 1212.42C515.325 1212.4 518.043 1214.69 518.614 1217.54L533.949 1294.57C534.498 1297.41 532.7 1299.76 529.915 1299.82ZM437.67 1291.19L522.807 1289.6L509.508 1222.79L424.2 1223.62L437.67 1291.19Z" fill="#D8DEE8"/>
<path d="M650.347 1297.39L558.102 1299.25C555.337 1299.31 552.634 1297.05 552.069 1294.21L536.775 1217.36C536.21 1214.52 537.998 1212.22 540.773 1212.18L633.229 1211.41C635.932 1211.41 638.573 1213.64 639.133 1216.44L654.222 1292.22C654.766 1295.02 653.034 1297.34 650.347 1297.39ZM561.062 1288.88L643.435 1287.33L630.351 1221.61L547.824 1222.42L561.062 1288.88Z" fill="#D8DEE8"/>
<path d="M766.904 1295.04L677.614 1296.84C674.937 1296.9 672.316 1294.68 671.756 1291.88L656.704 1216.28C656.149 1213.49 657.875 1211.21 660.558 1211.18L750.059 1210.44C752.674 1210.44 755.239 1212.63 755.789 1215.39L770.635 1289.96C771.185 1292.71 769.515 1294.99 766.904 1295.04ZM680.446 1286.66L760.182 1285.17L747.335 1220.5L667.454 1221.27L680.446 1286.66Z" fill="url(#paint6_linear_22_79)"/>
<path d="M879.792 1292.77L793.313 1294.51C790.744 1294.56 788.174 1292.38 787.625 1289.63L772.814 1215.23C772.269 1212.48 773.934 1210.23 776.53 1210.21L863.214 1209.49C865.748 1209.47 868.24 1211.65 868.78 1214.37L883.39 1287.76C883.929 1290.48 882.321 1292.72 879.792 1292.77ZM796.027 1284.47L873.25 1283.03L860.578 1219.38L783.21 1220.13L796.027 1284.47Z" fill="url(#paint7_linear_22_79)"/>
<path d="M989.171 1290.57L905.374 1292.26C902.866 1292.31 900.389 1290.16 899.85 1287.45L885.27 1214.23C884.757 1211.52 886.339 1209.31 888.868 1209.29L972.86 1208.59C975.316 1208.59 977.736 1210.72 978.271 1213.39L992.66 1285.64C993.179 1288.32 991.622 1290.52 989.171 1290.57ZM907.975 1282.38L982.809 1280.97L970.326 1218.31L895.358 1219.04L907.975 1282.38Z" fill="url(#paint8_linear_22_79)"/>
<path d="M1095.21 1288.43L1013.97 1290.07C1011.54 1290.12 1009.13 1288.01 1008.6 1285.34L994.248 1213.25C993.734 1210.58 995.276 1208.4 997.707 1208.38L1079.13 1207.71C1081.52 1207.71 1083.87 1209.81 1084.4 1212.44L1098.56 1283.58C1099.08 1286.21 1097.58 1288.39 1095.21 1288.43ZM1016.45 1280.35L1089 1278.98L1076.72 1217.28L1004.04 1217.99L1016.45 1280.35Z" fill="url(#paint9_linear_22_79)"/>
<path d="M426.287 1407.06L327.962 1410.42C326.469 1410.43 325.02 1409.92 323.855 1408.98C322.691 1408.05 321.88 1406.74 321.559 1405.28L305.736 1325.81C305.15 1322.88 307.072 1320.44 310.032 1320.37L408.593 1318.18C410.062 1318.21 411.48 1318.73 412.615 1319.66C413.75 1320.6 414.537 1321.89 414.847 1323.32L430.444 1401.66C431.02 1404.54 429.159 1406.96 426.287 1407.06ZM331.185 1399.62L418.989 1396.74L405.463 1328.8L317.494 1330.86L331.185 1399.62Z" fill="#D8DEE8"/>
<path d="M550.424 1402.8L455.353 1406.05C452.501 1406.15 449.7 1403.89 449.145 1401L433.589 1322.89C433.014 1319.99 434.864 1317.6 437.7 1317.54L532.998 1315.42C535.783 1315.36 538.502 1317.61 539.067 1320.46L554.407 1397.49C554.993 1400.34 553.22 1402.73 550.424 1402.8ZM458.436 1395.43L543.343 1392.65L530.038 1325.84L444.982 1327.86L458.436 1395.43Z" fill="#D8DEE8"/>
<path d="M670.517 1398.72L578.529 1401.86C575.77 1401.96 573.077 1399.73 572.507 1396.89L557.208 1320.06C556.642 1317.22 558.426 1314.87 561.196 1314.81L653.394 1312.76C656.092 1312.7 658.723 1314.92 659.284 1317.72L674.372 1393.5C674.932 1396.28 673.205 1398.63 670.517 1398.72ZM581.484 1391.42L663.631 1388.73L650.542 1323L568.251 1324.95L581.484 1391.42Z" fill="#D8DEE8"/>
<path d="M786.756 1394.75L697.713 1397.79C695.046 1397.88 692.43 1395.69 691.87 1392.89L676.818 1317.3C676.263 1314.5 677.984 1312.19 680.662 1312.13L769.911 1310.15C772.521 1310.08 775.08 1312.27 775.63 1315.03L790.477 1389.6C791.021 1392.35 789.362 1394.66 786.756 1394.75ZM700.534 1387.52L780.05 1384.91L767.171 1320.24L687.517 1322.13L700.534 1387.52Z" fill="#D8DEE8"/>
<path d="M899.331 1390.9L813.093 1393.85C810.524 1393.94 807.954 1391.79 807.44 1389.03L792.63 1314.64C792.08 1311.89 793.74 1309.61 796.33 1309.56L882.773 1307.63C885.301 1307.58 887.783 1309.73 888.323 1312.44L902.918 1385.84C903.457 1388.55 901.854 1390.82 899.331 1390.9ZM815.791 1383.74L892.804 1381.22L880.131 1317.57L802.975 1319.4L815.791 1383.74Z" fill="#D8DEE8"/>
<path d="M1008.41 1387.17L924.846 1390.03C922.338 1390.11 919.871 1387.98 919.332 1385.28L904.753 1312.06C904.213 1309.36 905.811 1307.12 908.324 1307.06L992.09 1305.2C994.541 1305.15 996.956 1307.25 997.486 1309.94L1011.87 1382.19C1012.4 1384.86 1010.85 1387.09 1008.41 1387.17ZM927.426 1380.09L1002.05 1377.64L989.577 1314.98L914.815 1316.75L927.426 1380.09Z" fill="#D8DEE8"/>
<path d="M1114.15 1383.56L1033.14 1386.36C1030.71 1386.44 1028.31 1384.34 1027.78 1381.68L1013.43 1309.6C1012.91 1306.93 1014.45 1304.72 1016.87 1304.67L1098.07 1302.86C1100.44 1302.81 1102.79 1304.92 1103.31 1307.53L1117.48 1378.65C1118 1381.29 1116.52 1383.48 1114.15 1383.56ZM1035.61 1376.54L1107.95 1374.17L1095.67 1312.47L1023.21 1314.19L1035.61 1376.54Z" fill="#D8DEE8"/>
<path d="M447.141 1511.81L349.089 1516.54C347.604 1516.56 346.157 1516.07 344.993 1515.15C343.829 1514.22 343.019 1512.93 342.701 1511.48L326.878 1432.01C326.292 1429.07 328.209 1426.6 331.159 1426.49L429.447 1422.93C430.907 1422.93 432.323 1423.43 433.457 1424.35C434.592 1425.27 435.379 1426.55 435.686 1427.98L451.283 1506.31C451.858 1509.2 450.008 1511.67 447.141 1511.81ZM352.296 1505.64L439.859 1501.53L426.333 1433.64L338.61 1436.95L352.296 1505.64Z" fill="#D8DEE8"/>
<path d="M570.934 1505.83L476.119 1510.41C473.278 1510.54 470.503 1508.31 469.953 1505.42L454.397 1427.31C453.821 1424.42 455.666 1422 458.508 1421.89L553.544 1418.44C556.324 1418.34 559.032 1420.57 559.597 1423.41L574.937 1500.45C575.487 1503.28 573.704 1505.69 570.934 1505.83ZM479.187 1499.71L563.857 1495.75L550.553 1428.94L465.728 1432.14L479.187 1499.71Z" fill="#D8DEE8"/>
<path d="M690.688 1500.05L598.957 1504.48C596.202 1504.61 593.515 1502.42 592.949 1499.57L577.651 1422.73C577.08 1419.88 578.863 1417.5 581.618 1417.4L673.565 1414.06C676.252 1413.97 678.884 1416.16 679.439 1418.96L694.542 1494.74C695.092 1497.54 693.37 1499.93 690.688 1500.05ZM601.891 1493.96L683.807 1490.12L670.723 1424.39L588.658 1427.47L601.891 1493.96Z" fill="#D8DEE8"/>
<path d="M806.608 1494.45L717.817 1498.74C715.149 1498.87 712.539 1496.71 711.984 1493.91L696.932 1418.31C696.377 1415.52 698.088 1413.17 700.76 1413.07L789.762 1409.85C792.363 1409.75 794.901 1411.9 795.467 1414.67L810.313 1489.23C810.863 1491.99 809.203 1494.33 806.608 1494.45ZM720.617 1488.4L799.912 1484.68L787.064 1420.01L707.626 1423.01L720.617 1488.4Z" fill="#D8DEE8"/>
<path d="M918.869 1489.03L832.873 1493.18C830.304 1493.3 827.76 1491.18 827.22 1488.43L812.41 1414.04C811.86 1411.29 813.515 1408.98 816.1 1408.9L902.301 1405.77C904.819 1405.68 907.301 1407.83 907.841 1410.52L922.451 1483.91C922.98 1486.61 921.382 1488.91 918.869 1489.03ZM835.556 1483.01L912.353 1479.41L899.68 1415.77L822.744 1418.67L835.556 1483.01Z" fill="#D8DEE8"/>
<path d="M1027.64 1483.78L944.297 1487.8C941.8 1487.92 939.333 1485.83 938.798 1483.12L924.255 1409.9C923.716 1407.2 925.309 1404.92 927.811 1404.84L1011.34 1401.81C1013.79 1401.72 1016.19 1403.81 1016.73 1406.48L1031.12 1478.73C1031.62 1481.43 1030.08 1483.66 1027.64 1483.78ZM946.867 1477.8L1021.28 1474.31L1008.81 1411.65L934.256 1414.46L946.867 1477.8Z" fill="#D8DEE8"/>
<path d="M1133.09 1478.69L1052.3 1482.59C1049.88 1482.71 1047.49 1480.64 1046.96 1477.97L1032.61 1405.89C1032.09 1403.22 1033.63 1400.99 1036.04 1400.9L1117.02 1397.96C1119.39 1397.87 1121.73 1399.94 1122.25 1402.59L1136.42 1473.72C1136.94 1476.35 1135.47 1478.58 1133.09 1478.69ZM1054.79 1472.74L1126.93 1469.36L1114.64 1407.66L1042.37 1410.39L1054.79 1472.74Z" fill="#D8DEE8"/>
<path d="M467.995 1616.54L370.215 1622.65C368.737 1622.7 367.291 1622.22 366.127 1621.31C364.962 1620.4 364.154 1619.11 363.843 1617.66L348.02 1538.19C347.434 1535.25 349.346 1532.76 352.29 1532.61L450.301 1527.66C451.755 1527.65 453.17 1528.14 454.306 1529.04C455.441 1529.95 456.227 1531.23 456.53 1532.65L472.121 1610.98C472.702 1613.87 470.852 1616.36 467.995 1616.54ZM373.406 1611.7L460.718 1606.37L447.192 1538.43L359.711 1542.96L373.406 1611.7Z" fill="#D8DEE8"/>
<path d="M591.444 1608.83L496.886 1614.74C495.447 1614.77 494.043 1614.3 492.916 1613.4C491.79 1612.5 491.013 1611.24 490.719 1609.83L475.164 1531.69C474.588 1528.81 476.428 1526.35 479.275 1526.2L574.048 1521.43C576.818 1521.29 579.521 1523.48 580.086 1526.33L595.426 1603.37C595.981 1606.21 594.203 1608.66 591.444 1608.83ZM499.944 1603.97L584.377 1598.83L571.078 1532.03L486.49 1536.41L499.944 1603.97Z" fill="#D8DEE8"/>
<path d="M710.864 1601.37L619.39 1607.09C616.645 1607.26 613.958 1605.09 613.392 1602.25L598.094 1525.41C597.528 1522.57 599.301 1520.15 602.051 1520.01L693.74 1515.39C696.418 1515.25 699.044 1517.41 699.599 1520.21L714.692 1595.99C715.252 1598.8 713.556 1601.21 710.864 1601.37ZM622.308 1596.51L704.018 1591.52L690.929 1525.79L609.096 1530.04L622.308 1596.51Z" fill="#D8DEE8"/>
<path d="M826.46 1594.15L737.915 1599.68C735.258 1599.85 732.653 1597.72 732.098 1594.92L717.046 1519.33C716.491 1516.53 718.197 1514.16 720.859 1514.03L809.614 1509.55C812.184 1509.42 814.753 1511.55 815.303 1514.3L830.15 1588.87C830.725 1591.62 829.05 1593.97 826.46 1594.15ZM740.706 1589.28L819.779 1584.45L806.901 1519.78L727.684 1523.89L740.706 1589.28Z" fill="#D8DEE8"/>
<path d="M360.271 1095.83L259.799 1095.1L255.513 1073.58L356.042 1074.59L360.271 1095.83Z" fill="url(#paint10_linear_22_79)"/>
<path d="M487.066 1096.75L389.954 1096.05L385.745 1074.89L482.908 1075.87L487.066 1096.75Z" fill="url(#paint11_linear_22_79)"/>
<path d="M609.682 1097.65L515.767 1096.97L511.625 1076.16L605.591 1077.11L609.682 1097.65Z" fill="url(#paint12_linear_22_79)"/>
<path d="M728.315 1098.51L637.443 1097.85L633.367 1077.39L724.292 1078.31L728.315 1098.51Z" fill="url(#paint13_linear_22_79)"/>
<path d="M843.162 1099.35L755.187 1098.71L751.179 1078.58L839.205 1079.47L843.162 1099.35Z" fill="url(#paint14_linear_22_79)"/>
<path d="M954.4 1100.16L869.186 1099.54L865.239 1079.73L950.505 1080.59L954.4 1100.16Z" fill="url(#paint15_linear_22_79)"/>
<path d="M1062.2 1100.95L979.612 1100.35L975.732 1080.84L1058.36 1081.68L1062.2 1100.95Z" fill="url(#paint16_linear_22_79)"/>
<path d="M1053.15 1055.49L249.69 1044.33L241.591 1003.65L1045.89 1019.07L1053.15 1055.49Z" fill="#D8DEE8"/>
<g style="mix-blend-mode:multiply" opacity="0.3">
<path d="M838.763 1333.82C658.841 1236.06 488.34 1312.06 365.575 1186.66C302.617 1122.36 282.431 1035.58 278.793 958.799L199.652 956.81C185.582 956.455 176.367 967.345 179.096 981.138L311.302 1645.12C314.046 1658.91 327.505 1669.33 341.319 1668.38L1084.81 1617.64C1003.16 1451.68 912.949 1374.12 838.763 1333.82Z" fill="#D8DEE8"/>
</g>
<path d="M98.3027 558.038C99.7549 557.652 101.232 557.366 102.724 557.183L207.282 527.933L280.343 800.599L178.708 826.347C176.289 827.703 173.711 828.751 171.032 829.468C135.089 839.099 89.6729 786.138 69.5889 711.183C49.5048 636.228 62.3592 567.669 98.3027 558.038Z" fill="url(#paint17_linear_22_79)"/>
<path d="M207.055 529.355C192.051 632.25 216.682 724.173 281.288 806.396L1129.86 852.162L929.571 72.4326L207.055 529.355Z" fill="url(#paint18_linear_22_79)"/>
<path d="M1168.13 842.315C1272.92 814.235 1310.4 614.295 1251.84 395.736C1193.28 177.177 1060.85 22.7634 956.052 50.8433C851.256 78.9232 813.777 278.863 872.339 497.422C930.902 715.981 1063.33 870.395 1168.13 842.315Z" fill="url(#paint19_linear_22_79)"/>
<mask id="mask0_22_79" style="mask-type:luminance" maskUnits="userSpaceOnUse" x="859" y="61" width="408" height="771">
<path d="M1165.86 828.594C1188.11 822.633 1207.47 807.443 1223.41 783.446C1239.62 759.022 1251.57 726.772 1258.91 687.606C1274.34 605.262 1267.55 502.807 1239.75 399.062C1211.95 295.317 1166.61 203.188 1112.07 139.593C1086.13 109.34 1059.66 87.39 1033.41 74.345C1007.62 61.5202 983.243 58.0511 960.994 64.0124C938.746 69.9738 919.386 85.1635 903.451 109.166C887.23 133.591 875.286 165.835 867.948 205.006C852.498 287.327 859.312 389.779 887.111 493.524C914.909 597.269 960.244 689.399 1014.79 752.992C1040.73 783.24 1067.2 805.197 1093.45 818.241C1119.25 831.081 1143.62 834.556 1165.86 828.594Z" fill="white"/>
</mask>
<g mask="url(#mask0_22_79)">
<path d="M1078.04 447.251C1104.91 547.522 1059.85 644.911 978.563 664.515C898.539 683.83 813.393 620.227 787.275 522.757C761.158 425.286 803.359 328.63 882.649 306.56C963.183 284.146 1051.18 346.991 1078.04 447.251Z" fill="url(#paint20_linear_22_79)"/>
<path style="mix-blend-mode:multiply" opacity="0.3" d="M1064.94 448.707C1084.89 523.165 1068.38 590.938 1028.63 599.955C989.514 608.84 942.501 557.286 923.108 484.907C903.714 412.529 918.833 345.097 957.409 334.149C996.571 323.049 1044.99 374.254 1064.94 448.707Z" fill="url(#paint21_linear_22_79)"/>
</g>
<path d="M334.664 1103.06C334.664 1103.06 239.536 938.335 110.881 1218.46C10.7068 1436.59 75.4529 1679.25 307.191 1745.83C538.928 1812.42 900.939 1677.94 787.321 1583.18C546.313 1382.14 363.391 1203.92 334.664 1103.06Z" fill="url(#paint22_linear_22_79)"/>
<g style="mix-blend-mode:multiply" opacity="0.35">
<path d="M215.295 1251.08C208.522 1271.03 206.991 1327.87 209.848 1393.23C212.417 1451.54 207.104 1482.02 299.868 1524.43C331.662 1538.97 353.652 1585.1 402.339 1612.54C424.411 1624.98 507.56 1669.99 614.944 1651.8C685.991 1639.77 738.897 1604.92 774.52 1572.45C539.874 1375.82 362.887 1202.14 334.664 1103.05C334.664 1103.05 299.904 1042.93 244.007 1057.15C257.569 1072.27 262.173 1112.96 215.295 1251.08Z" fill="url(#paint23_linear_22_79)"/>
</g>
<g style="mix-blend-mode:multiply" opacity="0.13">
<path d="M678.149 1679.58C568.544 1740.1 385.488 1777.04 249.11 1675.74C122.834 1581.96 111.585 1424.9 107.376 1376.95C100.017 1293.19 116.385 1220.21 139.983 1161.39C130.502 1177.97 120.794 1196.88 110.881 1218.46C10.7068 1436.59 75.4529 1679.25 307.191 1745.83C535.31 1811.38 889.597 1682.11 792.311 1587.66C764.669 1618.85 727.36 1652.4 678.149 1679.58Z" fill="url(#paint24_linear_22_79)"/>
</g>
<path style="mix-blend-mode:multiply" opacity="0.3" d="M505.479 1697.55C502.231 1697.55 498.973 1697.51 495.673 1697.44C411.024 1695.55 292.169 1667.43 206.729 1544.23C134.557 1440.16 144.218 1322.74 165.031 1242.52C187.55 1155.73 227.649 1092.65 228.05 1092.03C228.157 1091.86 228.296 1091.72 228.458 1091.6C228.621 1091.49 228.804 1091.41 228.997 1091.37C229.191 1091.33 229.39 1091.32 229.585 1091.36C229.779 1091.39 229.965 1091.47 230.132 1091.57C230.298 1091.68 230.442 1091.82 230.554 1091.98C230.667 1092.15 230.747 1092.33 230.789 1092.52C230.831 1092.71 230.834 1092.91 230.799 1093.11C230.764 1093.3 230.691 1093.49 230.584 1093.66C230.188 1094.28 190.315 1157.02 167.924 1243.36C147.291 1322.93 137.702 1439.41 209.206 1542.51C293.932 1664.67 411.79 1692.57 495.74 1694.43C586.829 1696.45 658.646 1669.25 659.361 1668.97C659.733 1668.82 660.148 1668.83 660.513 1668.99C660.878 1669.16 661.164 1669.46 661.308 1669.83C661.452 1670.2 661.442 1670.62 661.28 1670.98C661.118 1671.35 660.818 1671.63 660.445 1671.78C659.751 1672.05 592.41 1697.55 505.479 1697.55Z" fill="url(#paint25_linear_22_79)"/>
<path d="M960.048 1681.97C954.004 1675.47 943.182 1647.47 962.926 1641.72C982.772 1635.94 993.806 1628.61 1021.15 1606.7C1048.48 1584.79 1055.5 1603.62 1016.89 1639.2C978.281 1674.77 968.635 1691.22 960.048 1681.97Z" fill="url(#paint26_linear_22_79)"/>
<path d="M934.184 1641.09L950.443 1655.29C952.097 1656.73 954.173 1657.61 956.362 1657.77C958.552 1657.94 960.736 1657.4 962.592 1656.23C963.468 1655.67 964.201 1654.92 964.733 1654.03C965.265 1653.14 965.581 1652.14 965.655 1651.11C965.73 1650.08 965.561 1649.04 965.162 1648.08C964.763 1647.13 964.145 1646.28 963.358 1645.6L939.59 1625.26L934.184 1641.09Z" fill="url(#paint27_linear_22_79)"/>
<path d="M447.156 1504.38C418.429 1529.56 478.401 1612.09 574.202 1585.33C690.302 1552.92 837.951 1567.49 937.483 1648.54C943.259 1643.4 957.561 1635.35 951.019 1628.73C861.087 1537.81 777.835 1485.62 708.849 1471.61C604.564 1450.41 528.964 1432.72 447.156 1504.38Z" fill="url(#paint28_linear_22_79)"/>
<g style="mix-blend-mode:multiply" opacity="0.24">
<path d="M783.961 1538.95C800.801 1548.74 804.393 1528.84 813.078 1515.75C775.784 1492.85 740.762 1478.07 708.834 1471.59C604.548 1450.42 528.969 1432.72 447.141 1504.38C418.414 1529.56 478.386 1612.09 574.187 1585.33C608.839 1575.66 646.318 1570.28 684.47 1569.49C715.175 1550.19 740.279 1505.91 783.961 1538.95Z" fill="#552D63"/>
</g>
<path d="M430.203 1590.38L424.303 1592.63C424.303 1592.63 386.156 1556.61 379.358 1547.41C371.063 1536.21 464.475 1507.65 494.81 1470.32C526.672 1431.07 501.491 1516.93 501.491 1516.93L430.203 1590.38Z" fill="url(#paint29_linear_22_79)"/>
<path d="M395.607 1237C395.607 1237 429.473 1241.62 466.607 1307.48C494.527 1356.99 555.142 1398.01 555.142 1398.01L561.37 1436.97L511.06 1445.81L493.073 1433.95L443.98 1329.5L395.607 1237Z" fill="url(#paint30_linear_22_79)"/>
<path d="M329.941 1232.79C329.941 1232.79 246.463 1243.07 244.67 1339.17C243.015 1427.81 274.99 1462.16 353.477 1536.07C361.366 1543.5 374.162 1543.51 375.113 1544.58C380.211 1550.33 385.374 1556.32 390.602 1562.56C460.831 1495.16 540.028 1472.34 540.028 1472.34C540.028 1472.34 466.787 1320.81 434.602 1270.59C401.419 1218.83 351.376 1227.64 329.941 1232.79Z" fill="url(#paint31_linear_22_79)"/>
<g style="mix-blend-mode:multiply" opacity="0.2">
<path d="M468.54 1456.57C433.301 1475.42 383.361 1473.29 364.994 1449.95C351.16 1432.38 348.919 1425.84 332.104 1398.24C318.558 1376.04 311.965 1372.48 282.364 1353.79C271.197 1346.74 258.519 1336.53 246.088 1321.23C245.262 1327.17 244.795 1333.15 244.69 1339.15C243.035 1427.79 275.01 1462.14 353.498 1536.05C361.386 1543.48 374.182 1543.49 375.133 1544.56C380.231 1550.3 385.394 1556.3 390.622 1562.54C460.852 1495.14 540.049 1472.32 540.049 1472.32C540.049 1472.32 527.895 1448.48 511.784 1414.97C500.098 1434.56 491.146 1444.47 468.54 1456.57Z" fill="url(#paint32_linear_22_79)"/>
</g>
<path d="M410.983 1459.38C410.983 1459.38 426.801 1460.12 438.04 1455.59C449.279 1451.06 448.348 1450.02 461.283 1448.4C473.853 1446.8 498.618 1439.34 484.599 1426.59C468.992 1412.4 442.248 1416.37 434.561 1425.8C427.15 1434.88 414.313 1440.65 414.313 1440.65L410.983 1459.38Z" fill="url(#paint33_linear_22_79)"/>
<path d="M269.871 1280.67C269.871 1280.67 223.507 1286.08 250.564 1435.36C264.594 1512.79 333.955 1501.89 417.705 1469.9C423.358 1458.04 416.081 1432.9 416.081 1432.9C416.081 1432.9 312.027 1475.8 309.334 1413.21C306.312 1343.05 296.923 1273.26 269.871 1280.67Z" fill="url(#paint34_linear_22_79)"/>
<path d="M349.366 1264.56C329.52 1264.56 309.359 1249.87 308.393 1249.15C308.248 1249.02 308.156 1248.85 308.134 1248.66C308.113 1248.47 308.164 1248.28 308.277 1248.12C308.39 1247.97 308.557 1247.87 308.745 1247.83C308.932 1247.8 309.126 1247.83 309.287 1247.93C309.555 1248.13 336.056 1267.46 357.507 1262.09C363.447 1260.61 367.517 1257.7 369.599 1253.45C373.561 1245.36 369.085 1234.99 369.023 1234.89C368.974 1234.79 368.945 1234.69 368.936 1234.59C368.928 1234.49 368.941 1234.38 368.975 1234.28C369.009 1234.19 369.063 1234.1 369.133 1234.02C369.203 1233.94 369.288 1233.88 369.383 1233.84C369.478 1233.8 369.58 1233.78 369.684 1233.77C369.788 1233.77 369.891 1233.79 369.986 1233.84C370.082 1233.88 370.168 1233.94 370.239 1234.01C370.31 1234.09 370.365 1234.18 370.4 1234.27C370.601 1234.73 375.215 1245.4 370.95 1254.11C368.663 1258.78 364.269 1261.95 357.871 1263.55C355.089 1264.24 352.232 1264.58 349.366 1264.56Z" fill="#9F73F8"/>
<path d="M378.869 1541.49C378.716 1541.49 378.566 1541.44 378.439 1541.36C378.312 1541.27 378.214 1541.15 378.159 1541.01C378.103 1540.86 378.092 1540.71 378.127 1540.56C378.162 1540.41 378.242 1540.28 378.355 1540.17C379.101 1539.5 453.832 1472.6 521.296 1456.11C521.393 1456.08 521.493 1456.08 521.591 1456.09C521.69 1456.11 521.784 1456.14 521.87 1456.19C521.955 1456.24 522.029 1456.31 522.088 1456.39C522.146 1456.47 522.188 1456.56 522.211 1456.66C522.258 1456.85 522.226 1457.06 522.122 1457.23C522.018 1457.4 521.85 1457.52 521.656 1457.57C454.561 1473.98 380.108 1540.62 379.363 1541.29C379.227 1541.42 379.052 1541.48 378.869 1541.49Z" fill="#AE87F9"/>
<path d="M326.986 1187.69C326.986 1187.69 330.131 1223.87 327.289 1230.72C324.447 1237.57 333.425 1246.92 351.16 1250.51C368.895 1254.11 354.855 1214.44 354.855 1214.44L326.986 1187.69Z" fill="url(#paint35_linear_22_79)"/>
<path d="M378.093 1190.38C396.527 1180.33 396.136 1133.13 385.714 1129.54C379.728 1127.49 376.778 1142.02 357.029 1150.44C341.648 1157 330.707 1153.6 325.095 1162.65C322.459 1166.9 321.451 1173.18 322.31 1178.45C322.752 1181.17 323.975 1184.69 326.899 1191.54C329.494 1197.61 329.283 1197.38 330.095 1199.15C332.053 1203.42 336.01 1210.75 344.125 1219.97C345.453 1216.78 347.059 1213.72 348.924 1210.81C349.757 1209.51 353.087 1204.45 357.527 1200.53C365.606 1193.38 372.805 1193.26 378.093 1190.38Z" fill="url(#paint36_linear_22_79)"/>
<path d="M333.307 1210.32C333.307 1210.32 340.209 1227.21 359.074 1229C375.966 1230.6 384.445 1193.51 375.046 1183.84C371.911 1180.61 364.958 1178.36 358.894 1179.06C355.297 1179.46 353.925 1180.7 348.061 1181.26C342.655 1181.77 341.278 1180.96 339.5 1182.02C337.274 1183.36 335.188 1187.16 336.699 1198.66C334.027 1194.91 330.398 1193.06 327.479 1193.9C326.471 1194.26 325.582 1194.88 324.91 1195.72C321.883 1199.62 324.91 1205.72 333.307 1210.32Z" fill="url(#paint37_linear_22_79)"/>
<path d="M422.098 1479.45C421.72 1479.5 421.364 1479.66 421.072 1479.9C420.779 1480.15 420.563 1480.47 420.449 1480.83C420.418 1480.94 420.716 1484.72 420.706 1484.84C420.67 1485.26 420.779 1485.69 421.016 1486.05C421.253 1486.4 421.603 1486.67 422.011 1486.8L492.996 1509.86L625.68 1457.91L562.65 1462.73L422.098 1479.45Z" fill="#26264F"/>
<path d="M422.068 1478.94C421.642 1479 421.249 1479.2 420.954 1479.51C420.658 1479.82 420.477 1480.23 420.441 1480.65C420.404 1481.08 420.515 1481.51 420.753 1481.87C420.992 1482.22 421.345 1482.49 421.754 1482.62L492.739 1505.68L625.402 1453.73L562.367 1458.55L422.068 1478.94Z" fill="#444B8C"/>
<path d="M489.599 1504.65L500.175 1366.26C500.257 1365.19 500.701 1364.17 501.434 1363.37C502.167 1362.58 503.147 1362.06 504.214 1361.89L663.076 1337.02C663.778 1336.91 664.496 1336.96 665.177 1337.16C665.858 1337.36 666.486 1337.72 667.015 1338.19C667.544 1338.66 667.962 1339.25 668.237 1339.9C668.512 1340.56 668.638 1341.27 668.606 1341.98L662.644 1470.97C662.594 1472.05 662.18 1473.08 661.469 1473.89C660.758 1474.71 659.792 1475.26 658.728 1475.46L493.69 1506.01L489.599 1504.65Z" fill="url(#paint38_linear_22_79)"/>
<path d="M492.996 1509.86L503.886 1368.43C503.969 1367.36 504.413 1366.34 505.146 1365.54C505.879 1364.75 506.858 1364.23 507.925 1364.06L666.792 1339.2C667.494 1339.09 668.212 1339.14 668.894 1339.34C669.575 1339.54 670.204 1339.89 670.733 1340.36C671.262 1340.84 671.679 1341.43 671.954 1342.08C672.229 1342.74 672.354 1343.45 672.321 1344.16L666.36 1473.14C666.31 1474.22 665.899 1475.25 665.192 1476.06C664.485 1476.88 663.524 1477.43 662.464 1477.63L492.996 1509.86Z" fill="#26264F"/>
<path d="M492.996 1509.86L662.48 1477.64C663.539 1477.44 664.5 1476.89 665.207 1476.08C665.914 1475.26 666.326 1474.23 666.375 1473.15L668.174 1434.25C617.683 1462.92 554.412 1466.57 495.447 1478.07L492.996 1509.86Z" fill="#1F1F44"/>
<path d="M780.055 1480.87C777.737 1472.83 772.619 1463.92 790.898 1457.45C804.167 1452.74 827.215 1451.23 848.162 1450.15C877.521 1448.65 884.274 1466.21 841.368 1477.39C813.253 1484.7 783.349 1492.31 780.055 1480.87Z" fill="url(#paint39_linear_22_79)"/>
<path d="M802.929 1468.58C803.206 1473.08 800.359 1476.62 796.597 1477.15C787.912 1478.39 789.541 1473.92 789.264 1469.42C788.986 1464.92 785.477 1461.79 795.595 1460.85C799.378 1460.47 802.656 1464.05 802.929 1468.58Z" fill="url(#paint40_linear_22_79)"/>
<path d="M713.793 1442.67L722.37 1441.31C722.37 1441.31 739.071 1442.86 785.101 1455.56C794.958 1457.2 808.391 1485.96 779.52 1487.09C750.65 1488.22 715.499 1509.7 715.499 1509.7L713.793 1442.67Z" fill="url(#paint41_linear_22_79)"/>
<path d="M413.999 1576.5C413.999 1576.5 418.203 1613.82 504.985 1610.42C591.767 1607.01 746.806 1516.93 745.829 1469.66C744.853 1422.38 687.162 1441.27 627.427 1468.59C577.013 1491.66 499.132 1505.01 483.17 1507.49C462.738 1510.65 409.061 1558.55 413.999 1576.5Z" fill="url(#paint42_linear_22_79)"/>
<g style="mix-blend-mode:multiply" opacity="0.2">
<path d="M527.551 1529.74C567.722 1525.62 576.741 1496.81 626.733 1488.48C659.109 1483.08 670.564 1492.65 687.075 1481.58C700.113 1472.85 706.768 1457.64 709.969 1441.1C687.815 1442.98 657.917 1454.66 627.432 1468.61C578.468 1491.01 503.582 1504.25 484.707 1507.27C484.147 1507.35 471.484 1502.83 471.484 1502.83C471.484 1502.83 462.059 1508.21 455.302 1512.46C481.629 1526.55 512.879 1531.2 527.551 1529.74Z" fill="url(#paint43_linear_22_79)"/>
</g>
<path d="M1428.68 474.905C1414.51 476.645 1401.87 475.598 1390.76 471.764C1379.63 467.81 1370.68 461.413 1363.92 452.571C1357.15 443.73 1352.99 432.997 1351.44 420.372C1349.29 402.863 1350.66 386.918 1355.54 372.536C1360.54 358.139 1368.25 346.553 1378.66 337.779C1389.05 328.886 1401.16 323.592 1414.97 321.895C1427.84 320.316 1438.01 322.452 1445.5 328.303C1452.97 334.034 1457.38 342.32 1458.71 353.158C1459.6 360.424 1459.01 366.421 1456.93 371.149C1454.97 375.863 1451.6 378.513 1446.84 379.098C1443.51 379.507 1440.79 379.055 1438.69 377.741C1436.6 376.426 1435.37 374.28 1435 371.302C1434.87 370.231 1434.87 368.236 1434.99 365.319C1435.27 361.658 1435.28 358.756 1435.01 356.612C1433.68 345.773 1427.24 341.063 1415.69 342.482C1407.83 343.447 1400.64 346.929 1394.12 352.928C1387.6 358.927 1382.75 367.2 1379.57 377.745C1376.38 388.172 1375.63 400.234 1377.31 413.931C1379.06 428.224 1384.41 438.811 1393.36 445.692C1402.29 452.454 1414.56 454.877 1430.16 452.962C1437.9 452.011 1445.58 450.1 1453.21 447.229C1460.94 444.225 1469.38 440.105 1478.53 434.871C1480.23 433.937 1481.68 433.397 1482.87 433.251C1484.77 433.017 1486.29 433.556 1487.42 434.868C1488.55 436.181 1489.25 437.968 1489.53 440.231C1490.42 447.497 1487.15 453.339 1479.71 457.758C1471.71 462.489 1463.23 466.31 1454.28 469.223C1445.43 472.002 1436.9 473.896 1428.68 474.905ZM1561.33 402.036C1562.88 401.846 1564.16 402.474 1565.19 403.92C1566.21 405.366 1566.87 407.28 1567.16 409.662C1567.86 415.379 1566.55 418.986 1563.23 420.482C1556.39 423.86 1548.71 426.255 1540.18 427.665C1539.14 437.948 1535.66 446.536 1529.74 453.429C1523.8 460.204 1516.6 464.11 1508.15 465.148C1501 466.026 1494.65 465.052 1489.11 462.227C1483.68 459.387 1479.31 455.269 1475.98 449.874C1472.66 444.478 1470.59 438.446 1469.77 431.776C1468.66 422.724 1469.4 414.472 1471.99 407.021C1474.57 399.45 1478.65 393.327 1484.24 388.651C1489.82 383.855 1496.3 381.004 1503.69 380.098C1512.74 378.986 1520.39 381.25 1526.65 386.89C1533 392.396 1537.22 399.676 1539.3 408.731C1544.86 407.686 1551.38 405.676 1558.87 402.701C1559.8 402.345 1560.62 402.124 1561.33 402.036ZM1507.25 446.035C1511.06 445.567 1514.15 443.616 1516.5 440.183C1518.98 436.736 1520.34 432.035 1520.58 426.082C1516.58 424.034 1513.32 421.11 1510.79 417.309C1508.39 413.493 1506.91 409.322 1506.36 404.796C1506.12 402.891 1506.07 400.963 1506.19 399.013L1505.3 399.123C1500.53 399.708 1496.83 402.52 1494.18 407.56C1491.64 412.467 1490.88 419.089 1491.91 427.426C1492.71 433.977 1494.58 438.826 1497.5 441.973C1500.55 445.105 1503.79 446.459 1507.25 446.035ZM1570.35 457.51C1565.82 458.066 1562.31 456.079 1559.82 451.549C1557.45 447.004 1555.62 439.491 1554.34 429.01C1552.43 413.526 1552.83 398.546 1555.53 384.069C1556.18 380.484 1557.6 377.77 1559.79 375.929C1562.08 373.955 1565.44 372.697 1569.84 372.156C1572.23 371.863 1573.93 371.956 1574.96 372.435C1575.98 372.914 1576.6 373.987 1576.8 375.654C1577.04 377.56 1576.67 381.957 1575.7 388.846C1575.09 393.757 1574.65 398.043 1574.38 401.704C1574.09 405.245 1574.03 409.666 1574.19 414.965C1576.27 405.28 1579.11 396.951 1582.73 389.978C1586.47 382.991 1590.47 377.663 1594.73 373.996C1599.1 370.196 1603.37 368.039 1607.54 367.527C1611.71 367.015 1614.74 367.61 1616.65 369.311C1618.67 370.997 1619.92 373.806 1620.4 377.736C1620.87 381.548 1620.58 388.595 1619.55 398.877C1619.12 403.282 1618.86 406.578 1618.77 408.766C1622.93 393.385 1628.23 381.913 1634.67 374.351C1641.12 366.789 1647.5 362.621 1653.81 361.846C1661.55 360.895 1665.9 364.291 1666.85 372.033C1667.42 376.678 1667.14 385.236 1666.01 397.706C1665.02 408.346 1664.73 415.334 1665.14 418.669C1665.73 423.433 1667.75 425.603 1671.2 425.179C1673.58 424.886 1676.21 423.113 1679.07 419.86C1682.04 416.473 1685.86 411.168 1690.54 403.944C1691.76 402.101 1693.27 401.07 1695.05 400.851C1696.6 400.66 1697.88 401.229 1698.89 402.556C1700.02 403.868 1700.74 405.775 1701.04 408.276C1701.63 413.04 1700.95 416.871 1699.01 419.77C1694.66 426.711 1689.76 432.572 1684.3 437.353C1678.96 442.119 1672.54 444.963 1665.04 445.884C1658.96 446.63 1654.17 445.466 1650.64 442.392C1647.11 439.199 1644.93 434.268 1644.11 427.598C1643.7 424.263 1643.81 418.205 1644.42 409.425C1645.05 401.731 1645.19 396.455 1644.83 393.597C1644.6 391.691 1643.83 390.818 1642.52 390.979C1640.97 391.169 1639.02 393.465 1636.65 397.865C1634.28 402.147 1632.06 407.738 1630.01 414.64C1627.95 421.542 1626.48 428.735 1625.59 436.22C1624.98 442.098 1623.9 446.1 1622.34 448.225C1620.91 450.335 1618.29 451.624 1614.48 452.092C1610.55 452.575 1607.34 451.094 1604.86 447.651C1602.49 444.073 1600.97 439.605 1600.32 434.245C1599.76 429.719 1599.55 423.095 1599.69 414.373C1599.71 406.633 1599.57 401.572 1599.28 399.19C1599.04 397.285 1598.27 396.412 1596.96 396.573C1595.17 396.792 1593.17 399.214 1590.96 403.838C1588.75 408.463 1586.74 414.27 1584.94 421.262C1583.26 428.239 1582.04 435.039 1581.28 441.66C1580.66 447.419 1579.58 451.421 1578.04 453.665C1576.6 455.775 1574.04 457.057 1570.35 457.51ZM1702.24 343.931C1697.23 344.545 1693.34 343.874 1690.56 341.918C1687.77 339.843 1686.12 336.722 1685.6 332.553C1685.09 328.384 1686.28 324.733 1689.16 321.598C1692.14 318.33 1696.07 316.397 1700.96 315.797C1705.36 315.256 1709.07 315.889 1712.07 317.697C1715.07 319.504 1716.82 322.373 1717.3 326.304C1717.88 331.068 1716.8 335.069 1714.06 338.308C1711.3 341.428 1707.36 343.302 1702.24 343.931ZM1712.59 440.046C1704.84 440.997 1698.85 438.952 1694.6 433.912C1690.48 428.857 1687.86 421.804 1686.75 412.751C1686.09 407.392 1685.9 400.463 1686.19 391.964C1686.58 383.333 1687.4 375.252 1688.65 367.723C1689.26 363.78 1690.37 360.985 1691.98 359.336C1693.59 357.687 1696.36 356.622 1700.29 356.139C1706.36 355.393 1709.65 357.045 1710.15 361.095C1710.51 364.072 1710.23 371.12 1709.3 382.236C1708.05 395.689 1707.71 404.737 1708.28 409.383C1708.72 412.956 1709.53 415.637 1710.72 417.425C1711.9 419.214 1713.63 419.969 1715.89 419.692C1718.03 419.428 1720.53 417.61 1723.38 414.238C1726.23 410.865 1729.94 405.634 1734.51 398.545C1735.74 396.702 1737.24 395.67 1739.03 395.451C1740.58 395.261 1741.86 395.829 1742.86 397.156C1743.99 398.468 1744.71 400.375 1745.02 402.876C1745.6 407.641 1744.92 411.472 1742.98 414.37C1732.96 430.23 1722.83 438.788 1712.59 440.046ZM1747.26 435.788C1742.74 436.344 1739.23 434.357 1736.74 429.826C1734.37 425.282 1732.54 417.769 1731.25 407.287C1729.35 391.804 1729.75 376.823 1732.44 362.347C1733.09 358.761 1734.51 356.048 1736.7 354.207C1739 352.233 1742.35 350.975 1746.76 350.434C1749.14 350.141 1750.84 350.234 1751.87 350.713C1752.89 351.191 1753.51 352.264 1753.71 353.932C1753.95 355.837 1753.58 360.235 1752.61 367.124C1752.01 372.035 1751.57 376.32 1751.29 379.981C1751.02 383.642 1750.96 388.122 1751.13 393.421C1753.8 382.696 1757.18 373.817 1761.28 366.786C1765.37 359.755 1769.57 354.584 1773.88 351.274C1778.31 347.95 1782.49 346.046 1786.42 345.564C1794.16 344.613 1798.51 348.009 1799.46 355.751C1800.03 360.396 1799.75 368.954 1798.62 381.424C1797.63 392.064 1797.34 399.052 1797.75 402.387C1798.33 407.151 1800.35 409.321 1803.81 408.897C1806.19 408.604 1808.81 406.831 1811.68 403.578C1814.65 400.191 1818.47 394.886 1823.14 387.662C1824.37 385.819 1825.87 384.788 1827.66 384.569C1829.21 384.378 1830.49 384.947 1831.5 386.274C1832.62 387.586 1833.34 389.493 1833.65 391.994C1834.23 396.758 1833.56 400.589 1831.61 403.488C1827.27 410.429 1822.37 416.29 1816.91 421.071C1811.57 425.837 1805.15 428.681 1797.64 429.602C1791.57 430.348 1786.77 429.184 1783.25 426.11C1779.72 422.917 1777.54 417.986 1776.72 411.316C1776.31 407.981 1776.41 401.923 1777.03 393.143C1777.65 385.449 1777.79 380.173 1777.44 377.315C1777.21 375.409 1776.44 374.536 1775.13 374.697C1773.58 374.887 1771.62 377.183 1769.26 381.583C1767 385.85 1764.79 391.442 1762.62 398.358C1760.56 405.26 1759.09 412.453 1758.19 419.938C1757.57 425.697 1756.49 429.698 1754.95 431.943C1753.52 434.053 1750.95 435.335 1747.26 435.788ZM1874.17 340.774C1877.14 340.409 1879.29 340.629 1880.59 341.436C1882.01 342.109 1882.87 343.755 1883.2 346.376C1883.37 347.805 1883.45 348.944 1883.43 349.792C1883.41 353.543 1883.09 363.254 1882.48 378.926C1881.96 389.507 1881.67 396.495 1881.61 399.888C1880.85 431.173 1877.69 456.164 1872.13 474.862C1866.7 493.664 1857.56 503.854 1844.69 505.434C1838.62 506.179 1833.44 504.881 1829.16 501.537C1824.9 498.313 1822.39 493.664 1821.65 487.589C1820.61 479.133 1822.82 469.612 1828.3 459.026C1833.78 448.56 1844.82 435.113 1861.43 418.688L1861.64 411.588C1860.01 415.053 1857.64 417.883 1854.52 420.079C1851.51 422.142 1848.4 423.37 1845.18 423.765C1837.8 424.672 1831.57 422.716 1826.51 417.897C1821.44 413.078 1818.38 406.322 1817.31 397.627C1816.14 388.099 1817.24 378.836 1820.61 369.838C1823.96 360.721 1828.96 353.156 1835.59 347.143C1842.34 340.995 1849.82 337.417 1858.03 336.408C1860.65 336.086 1862.45 336.41 1863.41 337.38C1864.48 338.215 1865.48 339.907 1866.39 342.454C1868.6 341.7 1871.19 341.14 1874.17 340.774ZM1849.4 404.931C1852.14 404.594 1854.56 402.605 1856.65 398.963C1858.74 395.321 1859.94 390.337 1860.25 384.012L1862.22 352.76C1857.35 353.479 1853.06 355.94 1849.34 360.144C1845.61 364.229 1842.86 369.403 1841.09 375.665C1839.32 381.928 1838.85 388.394 1839.66 395.064C1840.12 398.756 1841.17 401.408 1842.82 403.019C1844.59 404.615 1846.78 405.253 1849.4 404.931ZM1844.53 487.862C1847.51 487.497 1850.4 483.514 1853.22 475.914C1856.15 468.3 1858.39 456.48 1859.93 440.453C1851.72 449.44 1845.98 457.338 1842.71 464.148C1839.43 470.958 1838.09 476.745 1838.67 481.509C1838.92 483.534 1839.48 485.157 1840.36 486.38C1841.35 487.588 1842.74 488.082 1844.53 487.862ZM2000.66 405.219C1984.82 407.164 1971.77 405.744 1961.51 400.959C1951.23 396.054 1945.34 387.409 1943.81 375.022C1943.01 368.471 1943.53 363.329 1945.37 359.597C1947.21 355.866 1950.33 353.729 1954.74 353.188C1957.95 352.793 1960.67 353.305 1962.9 354.724C1965.13 356.143 1966.41 358.162 1966.73 360.783C1967.02 363.165 1967.1 365.271 1966.96 367.102C1967.02 367.578 1967 368.426 1966.91 369.647C1966.94 370.852 1967.03 372.11 1967.19 373.42C1967.85 378.78 1971.02 382.441 1976.7 384.403C1982.5 386.351 1990.29 386.725 2000.05 385.526C2010.18 384.283 2017.88 381.524 2023.16 377.249C2028.42 372.854 2030.65 367.382 2029.85 360.831C2029.35 356.782 2027.62 353.488 2024.64 350.952C2021.66 348.296 2018.08 346.256 2013.92 344.833C2009.74 343.291 2003.9 341.529 1996.4 339.548C1986.79 337.101 1978.87 334.628 1972.64 332.129C1966.53 329.615 1961.05 325.874 1956.21 320.907C1951.48 315.807 1948.6 309.147 1947.59 300.929C1946.54 292.353 1947.87 284.453 1951.57 277.227C1955.4 269.987 1961.37 263.994 1969.5 259.249C1977.74 254.489 1987.7 251.392 1999.37 249.959C2008.06 248.892 2016.2 249.222 2023.79 250.95C2031.36 252.559 2037.61 255.721 2042.55 260.435C2047.6 265.135 2050.59 271.296 2051.53 278.919C2052.45 286.422 2052.01 292.219 2050.22 296.308C2048.42 300.397 2045.32 302.712 2040.91 303.253C2037.82 303.634 2035.08 303.003 2032.7 301.36C2030.44 299.703 2029.15 297.564 2028.83 294.944C2028.55 292.681 2028.47 290.575 2028.6 288.625C2028.52 285.008 2028.42 282.723 2028.3 281.77C2027.69 276.768 2024.78 273.256 2019.57 271.236C2014.37 269.215 2008.13 268.651 2000.87 269.543C1990.62 270.8 1983 273.671 1977.98 278.155C1973.08 282.506 1971.04 288.075 1971.88 294.864C1972.43 299.39 1974.28 303.093 1977.41 305.973C1980.66 308.837 1984.51 311.086 1988.94 312.718C1993.37 314.35 1999.52 316.194 2007.39 318.251C2016.9 320.831 2024.57 323.274 2030.41 325.579C2036.26 327.884 2041.4 331.363 2045.84 336.017C2050.4 340.656 2053.14 346.727 2054.06 354.231C2055.79 368.285 2051.76 379.782 2041.98 388.721C2032.3 397.526 2018.52 403.025 2000.66 405.219ZM2158.89 328.665C2160.44 328.474 2161.73 329.102 2162.75 330.548C2163.78 331.994 2164.43 333.908 2164.73 336.291C2165.43 342.008 2164.12 345.614 2160.8 347.11C2153.96 350.489 2146.27 352.883 2137.74 354.294C2136.7 364.576 2133.23 373.164 2127.3 380.058C2121.36 386.832 2114.16 390.738 2105.71 391.777C2098.56 392.654 2092.22 391.68 2086.67 388.855C2081.24 386.015 2076.87 381.898 2073.55 376.502C2070.22 371.107 2068.15 365.074 2067.34 358.404C2066.22 349.352 2066.96 341.101 2069.55 333.649C2072.13 326.079 2076.22 319.956 2081.81 315.279C2087.38 310.484 2093.87 307.633 2101.25 306.726C2110.3 305.615 2117.95 307.879 2124.21 313.519C2130.57 319.025 2134.79 326.305 2136.86 335.359C2142.42 334.314 2148.94 332.304 2156.44 329.329C2157.36 328.974 2158.18 328.752 2158.89 328.665ZM2104.81 372.663C2108.62 372.195 2111.71 370.245 2114.07 366.812C2116.55 363.364 2117.9 358.664 2118.14 352.71C2114.14 350.663 2110.88 347.738 2108.36 343.937C2105.95 340.122 2104.48 335.951 2103.92 331.425C2103.69 329.519 2103.63 327.591 2103.75 325.642L2102.86 325.752C2098.1 326.336 2094.39 329.149 2091.75 334.189C2089.2 339.095 2088.45 345.717 2089.47 354.054C2090.27 360.605 2092.14 365.454 2095.06 368.601C2098.11 371.733 2101.36 373.087 2104.81 372.663ZM2239.5 318.767C2241.05 318.577 2242.33 319.205 2243.36 320.651C2244.38 322.097 2245.04 324.011 2245.33 326.393C2246.03 332.111 2244.72 335.717 2241.4 337.213C2234.56 340.592 2226.88 342.986 2218.34 344.397C2217.31 354.679 2213.83 363.267 2207.91 370.161C2201.97 376.935 2194.77 380.841 2186.31 381.88C2179.17 382.757 2172.82 381.783 2167.28 378.958C2161.85 376.118 2157.47 372 2154.15 366.605C2150.83 361.21 2148.76 355.177 2147.94 348.507C2146.83 339.455 2147.57 331.204 2150.16 323.752C2152.74 316.182 2156.82 310.058 2162.41 305.382C2167.99 300.587 2174.47 297.736 2181.86 296.829C2190.91 295.717 2198.56 297.982 2204.81 303.622C2211.17 309.128 2215.39 316.408 2217.47 325.462C2223.02 324.417 2229.55 322.407 2237.04 319.432C2237.97 319.077 2238.78 318.855 2239.5 318.767ZM2185.42 362.766C2189.23 362.298 2192.31 360.348 2194.67 356.915C2197.15 353.467 2198.51 348.766 2198.75 342.813C2194.75 340.765 2191.49 337.841 2188.96 334.04C2186.56 330.224 2185.08 326.054 2184.53 321.528C2184.29 319.622 2184.24 317.694 2184.36 315.745L2183.47 315.854C2178.7 316.439 2175 319.252 2172.35 324.292C2169.81 329.198 2169.05 335.82 2170.08 344.157C2170.88 350.708 2172.74 355.557 2175.67 358.704C2178.71 361.836 2181.96 363.19 2185.42 362.766ZM2248.52 374.242C2243.99 374.798 2240.48 372.81 2237.99 368.28C2235.62 363.735 2233.79 356.222 2232.5 345.741C2230.6 330.257 2231 315.277 2233.7 300.801C2234.34 297.215 2235.76 294.502 2237.96 292.661C2240.25 290.686 2243.6 289.428 2248.01 288.887C2250.39 288.595 2252.1 288.688 2253.12 289.166C2254.15 289.645 2254.77 290.718 2254.97 292.385C2255.2 294.291 2254.84 298.689 2253.87 305.578C2253.26 310.488 2252.82 314.774 2252.55 318.435C2252.27 322.096 2252.22 326.576 2252.38 331.875C2255.06 321.149 2258.44 312.271 2262.53 305.239C2266.63 298.208 2270.83 293.038 2275.14 289.728C2279.56 286.403 2283.74 284.5 2287.67 284.017C2291.49 283.549 2294.47 284.211 2296.62 286.002C2298.88 287.659 2300.24 290.393 2300.71 294.204C2301.09 297.301 2301.15 303.218 2300.9 311.954C2300.6 319.366 2300.49 326.391 2300.58 333.029C2300.66 339.549 2301.19 346.799 2302.17 354.779C2302.72 359.305 2302.17 362.697 2300.51 364.956C2298.96 367.081 2296.1 368.399 2291.93 368.911C2288 369.394 2285.02 368.732 2282.98 366.927C2280.95 365.122 2279.68 362.194 2279.18 358.145C2278.6 353.38 2278.47 345.417 2278.79 334.254C2279.05 324.551 2279.02 318.388 2278.7 315.768C2278.46 313.862 2277.69 312.99 2276.38 313.151C2274.83 313.341 2272.88 315.636 2270.52 320.037C2268.26 324.304 2266.04 329.895 2263.87 336.812C2261.82 343.714 2260.34 350.907 2259.45 358.392C2258.82 364.151 2257.74 368.152 2256.21 370.396C2254.77 372.507 2252.21 373.788 2248.52 374.242Z" fill="url(#paint44_linear_22_79)"/>
<defs>
<linearGradient id="paint0_linear_22_79" x1="496.77" y1="686.622" x2="339.918" y2="1018.51" gradientUnits="userSpaceOnUse">
<stop stop-color="#7A4CF5"/>
<stop offset="1" stop-color="#836BC2"/>
</linearGradient>
<linearGradient id="paint1_linear_22_79" x1="-119.536" y1="1493.78" x2="69.7949" y2="1396.91" gradientUnits="userSpaceOnUse">
<stop stop-color="#FF9085"/>
<stop offset="1" stop-color="#FB6FBB"/>
</linearGradient>
<linearGradient id="paint2_linear_22_79" x1="138.334" y1="1305.64" x2="1225.71" y2="1305.64" gradientUnits="userSpaceOnUse">
<stop stop-color="#EBEFF2"/>
<stop offset="1" stop-color="white"/>
</linearGradient>
<linearGradient id="paint3_linear_22_79" x1="463.044" y1="1016.85" x2="1222.29" y2="2248.71" gradientUnits="userSpaceOnUse">
<stop stop-color="#FF9085"/>
<stop offset="1" stop-color="#FB6FBB"/>
</linearGradient>
<linearGradient id="paint4_linear_22_79" x1="295.676" y1="1124.51" x2="1066.47" y2="2375.1" gradientUnits="userSpaceOnUse">
<stop stop-color="#FF9085"/>
<stop offset="1" stop-color="#FB6FBB"/>
</linearGradient>
<linearGradient id="paint5_linear_22_79" x1="726.614" y1="1738.33" x2="846.428" y2="849.296" gradientUnits="userSpaceOnUse">
<stop stop-color="#EBEFF2"/>
<stop offset="1" stop-color="white"/>
</linearGradient>
<linearGradient id="paint6_linear_22_79" x1="661.131" y1="1253.64" x2="757.465" y2="1232.45" gradientUnits="userSpaceOnUse">
<stop stop-color="#FF9085"/>
<stop offset="1" stop-color="#FB6FBB"/>
</linearGradient>
<linearGradient id="paint7_linear_22_79" x1="777.139" y1="1252.01" x2="870.468" y2="1231.48" gradientUnits="userSpaceOnUse">
<stop stop-color="#FF9085"/>
<stop offset="1" stop-color="#FB6FBB"/>
</linearGradient>
<linearGradient id="paint8_linear_22_79" x1="889.499" y1="1250.43" x2="979.956" y2="1230.53" gradientUnits="userSpaceOnUse">
<stop stop-color="#FF9085"/>
<stop offset="1" stop-color="#FB6FBB"/>
</linearGradient>
<linearGradient id="paint9_linear_22_79" x1="998.38" y1="1248.89" x2="1086.1" y2="1229.59" gradientUnits="userSpaceOnUse">
<stop stop-color="#FF9085"/>
<stop offset="1" stop-color="#FB6FBB"/>
</linearGradient>
<linearGradient id="paint10_linear_22_79" x1="281.979" y1="1002.31" x2="317.797" y2="1491.87" gradientUnits="userSpaceOnUse">
<stop stop-color="#E38DDD"/>
<stop offset="1" stop-color="#9571F6"/>
</linearGradient>
<linearGradient id="paint11_linear_22_79" x1="408.327" y1="996.01" x2="443.371" y2="1475.07" gradientUnits="userSpaceOnUse">
<stop stop-color="#E38DDD"/>
<stop offset="1" stop-color="#9571F6"/>
</linearGradient>
<linearGradient id="paint12_linear_22_79" x1="530.497" y1="989.987" x2="564.809" y2="1458.97" gradientUnits="userSpaceOnUse">
<stop stop-color="#E38DDD"/>
<stop offset="1" stop-color="#9571F6"/>
</linearGradient>
<linearGradient id="paint13_linear_22_79" x1="648.695" y1="984.221" x2="682.301" y2="1443.53" gradientUnits="userSpaceOnUse">
<stop stop-color="#E38DDD"/>
<stop offset="1" stop-color="#9571F6"/>
</linearGradient>
<linearGradient id="paint14_linear_22_79" x1="763.119" y1="978.707" x2="796.041" y2="1428.71" gradientUnits="userSpaceOnUse">
<stop stop-color="#E38DDD"/>
<stop offset="1" stop-color="#9571F6"/>
</linearGradient>
<linearGradient id="paint15_linear_22_79" x1="873.936" y1="973.424" x2="906.205" y2="1414.48" gradientUnits="userSpaceOnUse">
<stop stop-color="#E38DDD"/>
<stop offset="1" stop-color="#9571F6"/>
</linearGradient>
<linearGradient id="paint16_linear_22_79" x1="981.319" y1="968.352" x2="1012.96" y2="1400.8" gradientUnits="userSpaceOnUse">
<stop stop-color="#E38DDD"/>
<stop offset="1" stop-color="#9571F6"/>
</linearGradient>
<linearGradient id="paint17_linear_22_79" x1="60.3898" y1="597.767" x2="303.98" y2="766.467" gradientUnits="userSpaceOnUse">
<stop stop-color="#E38DDD"/>
<stop offset="1" stop-color="#9571F6"/>
</linearGradient>
<linearGradient id="paint18_linear_22_79" x1="468.372" y1="158.982" x2="1004.92" y2="1288.66" gradientUnits="userSpaceOnUse">
<stop stop-color="#AA80F9"/>
<stop offset="1" stop-color="#6165D7"/>
</linearGradient>
<linearGradient id="paint19_linear_22_79" x1="784.705" y1="254.475" x2="1339.48" y2="638.682" gradientUnits="userSpaceOnUse">
<stop stop-color="#E38DDD"/>
<stop offset="1" stop-color="#9571F6"/>
</linearGradient>
<linearGradient id="paint20_linear_22_79" x1="761.839" y1="122.747" x2="1104.8" y2="849.997" gradientUnits="userSpaceOnUse">
<stop stop-color="#FFC444"/>
<stop offset="1" stop-color="#F36F56"/>
</linearGradient>
<linearGradient id="paint21_linear_22_79" x1="867.968" y1="199.523" x2="1121.02" y2="736.128" gradientUnits="userSpaceOnUse">
<stop stop-color="#FFC444"/>
<stop offset="1" stop-color="#F36F56"/>
</linearGradient>
<linearGradient id="paint22_linear_22_79" x1="247.07" y1="1151.96" x2="811.685" y2="2358.1" gradientUnits="userSpaceOnUse">
<stop stop-color="#FFC444"/>
<stop offset="1" stop-color="#F36F56"/>
</linearGradient>
<linearGradient id="paint23_linear_22_79" x1="311.888" y1="1121.62" x2="876.503" y2="2327.76" gradientUnits="userSpaceOnUse">
<stop stop-color="#FFC444"/>
<stop offset="1" stop-color="#F36F56"/>
</linearGradient>
<linearGradient id="paint24_linear_22_79" x1="247.07" y1="1151.96" x2="811.685" y2="2358.11" gradientUnits="userSpaceOnUse">
<stop stop-color="#FFC444"/>
<stop offset="1" stop-color="#F36F56"/>
</linearGradient>
<linearGradient id="paint25_linear_22_79" x1="149.922" y1="1394.44" x2="661.411" y2="1394.44" gradientUnits="userSpaceOnUse">
<stop stop-color="#FFC444"/>
<stop offset="1" stop-color="#F36F56"/>
</linearGradient>
<linearGradient id="paint26_linear_22_79" x1="947.608" y1="1681.24" x2="1025" y2="1593.29" gradientUnits="userSpaceOnUse">
<stop stop-color="#40447E"/>
<stop offset="1" stop-color="#3C3B6B"/>
</linearGradient>
<linearGradient id="paint27_linear_22_79" x1="751.035" y1="1392.81" x2="1594.32" y2="2459.86" gradientUnits="userSpaceOnUse">
<stop stop-color="#FFC444"/>
<stop offset="1" stop-color="#F36F56"/>
</linearGradient>
<linearGradient id="paint28_linear_22_79" x1="417.412" y1="1439.94" x2="1014.96" y2="1711.95" gradientUnits="userSpaceOnUse">
<stop stop-color="#311944"/>
<stop offset="1" stop-color="#6B3976"/>
</linearGradient>
<linearGradient id="paint29_linear_22_79" x1="206.686" y1="1591.05" x2="725.517" y2="1461.45" gradientUnits="userSpaceOnUse">
<stop stop-color="#311944"/>
<stop offset="1" stop-color="#893976"/>
</linearGradient>
<linearGradient id="paint30_linear_22_79" x1="644.174" y1="1658.1" x2="489.504" y2="1346.45" gradientUnits="userSpaceOnUse">
<stop stop-color="#AA80F9"/>
<stop offset="1" stop-color="#6165D7"/>
</linearGradient>
<linearGradient id="paint31_linear_22_79" x1="423.102" y1="1523.05" x2="352.03" y2="1302.23" gradientUnits="userSpaceOnUse">
<stop stop-color="#AA80F9"/>
<stop offset="1" stop-color="#6165D7"/>
</linearGradient>
<linearGradient id="paint32_linear_22_79" x1="423.102" y1="1523.05" x2="352.031" y2="1302.24" gradientUnits="userSpaceOnUse">
<stop stop-color="#AA80F9"/>
<stop offset="1" stop-color="#6165D7"/>
</linearGradient>
<linearGradient id="paint33_linear_22_79" x1="402.358" y1="1451.49" x2="673.384" y2="1361.57" gradientUnits="userSpaceOnUse">
<stop stop-color="#AB316D"/>
<stop offset="1" stop-color="#792D3D"/>
</linearGradient>
<linearGradient id="paint34_linear_22_79" x1="371.527" y1="1554.76" x2="296.744" y2="1322.42" gradientUnits="userSpaceOnUse">
<stop offset="0.28" stop-color="#AA80F9"/>
<stop offset="1" stop-color="#6165D7"/>
</linearGradient>
<linearGradient id="paint35_linear_22_79" x1="335.91" y1="1272.09" x2="349.972" y2="1166.27" gradientUnits="userSpaceOnUse">
<stop stop-color="#AB316D"/>
<stop offset="1" stop-color="#792D3D"/>
</linearGradient>
<linearGradient id="paint36_linear_22_79" x1="299.504" y1="1280.63" x2="381.892" y2="1138.55" gradientUnits="userSpaceOnUse">
<stop stop-color="#311944"/>
<stop offset="1" stop-color="#6B3976"/>
</linearGradient>
<linearGradient id="paint37_linear_22_79" x1="352.654" y1="1186.69" x2="335.722" y2="1344.32" gradientUnits="userSpaceOnUse">
<stop stop-color="#AB316D"/>
<stop offset="1" stop-color="#792D3D"/>
</linearGradient>
<linearGradient id="paint38_linear_22_79" x1="484.812" y1="1427.32" x2="673.107" y2="1415.8" gradientUnits="userSpaceOnUse">
<stop stop-color="#40447E"/>
<stop offset="1" stop-color="#3C3B6B"/>
</linearGradient>
<linearGradient id="paint39_linear_22_79" x1="780.667" y1="1482.46" x2="867.463" y2="1447.16" gradientUnits="userSpaceOnUse">
<stop stop-color="#40447E"/>
<stop offset="1" stop-color="#3C3B6B"/>
</linearGradient>
<linearGradient id="paint40_linear_22_79" x1="762.686" y1="1439.59" x2="1764.49" y2="2359.53" gradientUnits="userSpaceOnUse">
<stop stop-color="#FFC444"/>
<stop offset="1" stop-color="#F36F56"/>
</linearGradient>
<linearGradient id="paint41_linear_22_79" x1="375.883" y1="1530.35" x2="804.745" y2="1461.91" gradientUnits="userSpaceOnUse">
<stop stop-color="#311944"/>
<stop offset="1" stop-color="#6B3976"/>
</linearGradient>
<linearGradient id="paint42_linear_22_79" x1="215.173" y1="1625.01" x2="734.004" y2="1495.41" gradientUnits="userSpaceOnUse">
<stop stop-color="#311944"/>
<stop offset="1" stop-color="#893976"/>
</linearGradient>
<linearGradient id="paint43_linear_22_79" x1="398.177" y1="1545.17" x2="711.526" y2="1457.89" gradientUnits="userSpaceOnUse">
<stop stop-color="#311944"/>
<stop offset="1" stop-color="#6B3976"/>
</linearGradient>
<linearGradient id="paint44_linear_22_79" x1="2368" y1="245.5" x2="2081.5" y2="325.5" gradientUnits="userSpaceOnUse">
<stop stop-color="#FFC444"/>
<stop offset="1" stop-color="#7A4CF5"/>
</linearGradient>
</defs>
</svg>
