<svg width="33" height="32" viewBox="0 0 33 32" fill="none" xmlns="http://www.w3.org/2000/svg">
<g id="Frame">
<g id="SVGRepo_iconCarrier">
<path id="Vector" d="M24.4453 2H8.44531C5.1316 2 2.44531 4.68629 2.44531 8V24C2.44531 27.3137 5.1316 30 8.44531 30H24.4453C27.759 30 30.4453 27.3137 30.4453 24V8C30.4453 4.68629 27.759 2 24.4453 2Z" fill="url(#paint0_radial_326_20877)"/>
<path id="Vector_2" d="M24.4453 2H8.44531C5.1316 2 2.44531 4.68629 2.44531 8V24C2.44531 27.3137 5.1316 30 8.44531 30H24.4453C27.759 30 30.4453 27.3137 30.4453 24V8C30.4453 4.68629 27.759 2 24.4453 2Z" fill="url(#paint1_radial_326_20877)"/>
<path id="Vector_3" d="M24.4453 2H8.44531C5.1316 2 2.44531 4.68629 2.44531 8V24C2.44531 27.3137 5.1316 30 8.44531 30H24.4453C27.759 30 30.4453 27.3137 30.4453 24V8C30.4453 4.68629 27.759 2 24.4453 2Z" fill="url(#paint2_radial_326_20877)"/>
<path id="Vector_4" d="M23.4453 10.5C23.4453 11.3284 22.7737 12 21.9453 12C21.1169 12 20.4453 11.3284 20.4453 10.5C20.4453 9.67157 21.1169 9 21.9453 9C22.7737 9 23.4453 9.67157 23.4453 10.5Z" fill="white"/>
<path id="Vector_5" fill-rule="evenodd" clip-rule="evenodd" d="M16.4453 21C19.2067 21 21.4453 18.7614 21.4453 16C21.4453 13.2386 19.2067 11 16.4453 11C13.6839 11 11.4453 13.2386 11.4453 16C11.4453 18.7614 13.6839 21 16.4453 21ZM16.4453 19C18.1022 19 19.4453 17.6569 19.4453 16C19.4453 14.3431 18.1022 13 16.4453 13C14.7884 13 13.4453 14.3431 13.4453 16C13.4453 17.6569 14.7884 19 16.4453 19Z" fill="white"/>
<path id="Vector_6" fill-rule="evenodd" clip-rule="evenodd" d="M6.44531 15.6C6.44531 12.2397 6.44531 10.5595 7.09927 9.27606C7.67451 8.14708 8.59239 7.2292 9.72137 6.65396C11.0048 6 12.685 6 16.0453 6H16.8453C20.2056 6 21.8858 6 23.1692 6.65396C24.2982 7.2292 25.2161 8.14708 25.7913 9.27606C26.4453 10.5595 26.4453 12.2397 26.4453 15.6V16.4C26.4453 19.7603 26.4453 21.4405 25.7913 22.7239C25.2161 23.8529 24.2982 24.7708 23.1692 25.346C21.8858 26 20.2056 26 16.8453 26H16.0453C12.685 26 11.0048 26 9.72137 25.346C8.59239 24.7708 7.67451 23.8529 7.09927 22.7239C6.44531 21.4405 6.44531 19.7603 6.44531 16.4V15.6ZM16.0453 8H16.8453C18.5585 8 19.723 8.00156 20.6232 8.0751C21.5001 8.14674 21.9485 8.27659 22.2613 8.43597C23.0139 8.81947 23.6258 9.43139 24.0093 10.184C24.1687 10.4968 24.2986 10.9452 24.3702 11.8221C24.4437 12.7223 24.4453 13.8868 24.4453 15.6V16.4C24.4453 18.1132 24.4437 19.2777 24.3702 20.1779C24.2986 21.0548 24.1687 21.5032 24.0093 21.816C23.6258 22.5686 23.0139 23.1805 22.2613 23.564C21.9485 23.7234 21.5001 23.8533 20.6232 23.9249C19.723 23.9984 18.5585 24 16.8453 24H16.0453C14.3321 24 13.1676 23.9984 12.2674 23.9249C11.3905 23.8533 10.9421 23.7234 10.6293 23.564C9.8767 23.1805 9.26478 22.5686 8.88128 21.816C8.7219 21.5032 8.59205 21.0548 8.52041 20.1779C8.44687 19.2777 8.44531 18.1132 8.44531 16.4V15.6C8.44531 13.8868 8.44687 12.7223 8.52041 11.8221C8.59205 10.9452 8.7219 10.4968 8.88128 10.184C9.26478 9.43139 9.8767 8.81947 10.6293 8.43597C10.9421 8.27659 11.3905 8.14674 12.2674 8.0751C13.1676 8.00156 14.3321 8 16.0453 8Z" fill="white"/>
</g>
</g>
<defs>
<radialGradient id="paint0_radial_326_20877" cx="0" cy="0" r="1" gradientUnits="userSpaceOnUse" gradientTransform="translate(12.4453 23) rotate(-55.3758) scale(25.5196)">
<stop stop-color="#B13589"/>
<stop offset="0.79309" stop-color="#C62F94"/>
<stop offset="1" stop-color="#8A3AC8"/>
</radialGradient>
<radialGradient id="paint1_radial_326_20877" cx="0" cy="0" r="1" gradientUnits="userSpaceOnUse" gradientTransform="translate(11.4453 31) rotate(-65.1363) scale(22.5942)">
<stop stop-color="#E0E8B7"/>
<stop offset="0.444662" stop-color="#FB8A2E"/>
<stop offset="0.71474" stop-color="#E2425C"/>
<stop offset="1" stop-color="#E2425C" stop-opacity="0"/>
</radialGradient>
<radialGradient id="paint2_radial_326_20877" cx="0" cy="0" r="1" gradientUnits="userSpaceOnUse" gradientTransform="translate(0.945313 3) rotate(-8.1301) scale(38.8909 8.31836)">
<stop offset="0.156701" stop-color="#406ADC"/>
<stop offset="0.467799" stop-color="#6A45BE"/>
<stop offset="1" stop-color="#6A45BE" stop-opacity="0"/>
</radialGradient>
</defs>
</svg>
