<svg width="12" height="18" viewBox="0 0 12 18" fill="none" xmlns="http://www.w3.org/2000/svg">
<path d="M9.45172 6.54833V4.32119C9.45172 2.68443 7.97171 1.35303 6.15376 1.35303C4.33581 1.35303 2.8558 2.68443 2.8558 4.32119V6.54833H3.79226V4.44334C3.79226 3.24426 4.8529 2.26913 6.15376 2.26913C7.45462 2.26913 8.51526 3.24426 8.51526 4.44334V6.54833H9.45172ZM10.9826 7.15906H1.3249C1.15593 7.15906 1.01953 7.29546 1.01953 7.46443V16.8188C1.01953 16.9878 1.15593 17.1242 1.3249 17.1242H6.53242L11.288 12.3686V7.46443C11.288 7.29546 11.1516 7.15906 10.9826 7.15906ZM1.87252 9.06659C1.87252 8.56986 2.27561 8.16677 2.77234 8.16677C3.26907 8.16677 3.67215 8.56986 3.67215 9.06659C3.67215 9.56332 3.26907 9.9664 2.77234 9.9664C2.27561 9.9664 1.87252 9.56332 1.87252 9.06659ZM10.9826 17.1242C11.1516 17.1242 11.288 16.9878 11.288 16.8188V15.6686L9.83241 17.1242H10.9826ZM8.96721 17.1242L11.288 14.8034V13.2318L7.39559 17.1242H8.96721Z" fill="#FFBC00"/>
<path d="M10.984 6.54822H10.0638V4.32108C10.0638 3.3602 9.65259 2.45631 8.90749 1.78043C8.17054 1.11066 7.19337 0.742188 6.15512 0.742188C5.11687 0.742188 4.1397 1.11066 3.40275 1.78043C2.65765 2.45835 2.24643 3.3602 2.24643 4.32108V6.54822H1.32626C0.821383 6.54822 0.410156 6.95945 0.410156 7.46432V16.8187C0.410156 17.3236 0.821383 17.7348 1.32626 17.7348H10.984C11.4889 17.7348 11.9001 17.3236 11.9001 16.8187V7.46432C11.9001 6.95945 11.4889 6.54822 10.984 6.54822ZM4.40435 4.44323C4.40435 3.5821 5.19016 2.87975 6.15512 2.87975C7.12008 2.87975 7.90589 3.5821 7.90589 4.44323V6.54822H4.40435V4.44323ZM6.15512 2.26902C4.85222 2.26902 3.79362 3.24416 3.79362 4.44323V6.54822H2.85716V4.32108C2.85716 2.68432 4.33717 1.35292 6.15512 1.35292C7.97307 1.35292 9.45308 2.68432 9.45308 4.32108V6.54822H8.51662V4.44323C8.51662 3.24416 7.45802 2.26902 6.15512 2.26902ZM11.2894 16.8187C11.2894 16.9877 11.153 17.1241 10.984 17.1241H9.83377L11.2894 15.6685V16.8187ZM11.2894 14.8033L8.96856 17.1241H7.39694L11.2894 13.2317V14.8033ZM11.2894 12.3685L6.53377 17.1241H1.32626C1.15729 17.1241 1.02089 16.9877 1.02089 16.8187V7.46432C1.02089 7.29535 1.15729 7.15896 1.32626 7.15896H10.984C11.153 7.15896 11.2894 7.29535 11.2894 7.46432V12.3685Z" fill="#212937"/>
<path d="M1.875 9.06681C1.875 9.30545 1.9698 9.53432 2.13855 9.70307C2.3073 9.87182 2.53617 9.96662 2.77481 9.96662C3.01346 9.96662 3.24233 9.87182 3.41108 9.70307C3.57983 9.53432 3.67463 9.30545 3.67463 9.06681C3.67463 8.82816 3.57983 8.59929 3.41108 8.43054C3.24233 8.26179 3.01346 8.16699 2.77481 8.16699C2.53617 8.16699 2.3073 8.26179 2.13855 8.43054C1.9698 8.59929 1.875 8.82816 1.875 9.06681Z" fill="white"/>
</svg>
