<svg width="188" height="66" viewBox="0 0 188 66" fill="none" xmlns="http://www.w3.org/2000/svg">
<path d="M37.0024 21.3185V47.5857C37.0024 48.1516 36.5426 48.6122 35.9735 48.6122H35.4321C34.8646 48.6122 34.4031 48.1532 34.4031 47.5857C34.4031 46.704 33.3791 46.2549 32.6974 46.8159C32.0615 47.339 31.3896 47.7749 30.6819 48.122C29.3073 48.7981 27.8038 49.1353 26.1715 49.1353C23.2705 49.1353 20.7951 48.0874 18.7421 45.9901C16.9059 44.1148 15.89 41.8727 15.6976 39.2686C15.4465 35.8767 16.8032 32.4913 19.3568 30.2376C21.3071 28.5153 23.6048 27.6533 26.2497 27.6533C27.931 27.6533 29.454 28.0103 30.8173 28.7242C31.481 29.073 32.1071 29.5056 32.6926 30.0238C33.3579 30.6127 34.4064 30.1537 34.4064 29.2654V21.3185C34.4064 20.7526 34.8663 20.292 35.4354 20.292H35.9767C36.5442 20.292 37.0057 20.7509 37.0057 21.3185H37.0024ZM26.465 30.1899C24.9974 30.1899 23.6423 30.5502 22.4013 31.269C21.1604 31.9879 20.1722 32.9979 19.4384 34.2991C18.7046 35.6003 18.3377 36.9755 18.3377 38.4264C18.3377 39.8773 18.7078 41.241 19.4482 42.5537C20.1885 43.8664 21.1816 44.8896 22.429 45.62C23.6765 46.352 25.0153 46.7172 26.4454 46.7172C27.8755 46.7172 29.2551 46.3553 30.5466 45.6298C31.8381 44.9044 32.8328 43.9223 33.5291 42.6853C34.2238 41.4466 34.5727 40.0533 34.5727 38.5021C34.5727 36.1382 33.7933 34.1626 32.2311 32.5752C30.6689 30.9877 28.7479 30.1932 26.465 30.1932V30.1899Z" fill="white"/>
<path d="M60.9599 42.3809C61.6171 42.7247 61.8568 43.5604 61.4622 44.1871C60.9012 45.0804 60.2832 45.8354 59.6097 46.4523C58.6541 47.3291 57.5812 47.9953 56.3859 48.4526C55.1922 48.9099 53.8404 49.1386 52.3336 49.1386C48.9907 49.1386 46.3767 48.0463 44.4917 45.8617C42.6066 43.6772 41.6641 41.2081 41.6641 38.4527C41.6641 35.8602 42.4631 33.5506 44.0579 31.5223C46.0816 28.943 48.7901 27.6533 52.1836 27.6533C55.577 27.6533 58.4666 28.9743 60.5539 31.6161C61.8503 33.2463 62.589 35.2318 62.7716 37.571C62.814 38.1237 62.3819 38.6024 61.8258 38.6024H45.3951C44.826 38.6024 44.384 39.1041 44.4509 39.6684C44.6792 41.565 45.4146 43.1541 46.6588 44.4388C48.1297 45.9572 49.9463 46.7155 52.1086 46.7155C53.1522 46.7155 54.1665 46.5346 55.1547 46.1727C56.1413 45.8108 56.9811 45.3304 57.6725 44.7333C58.1829 44.2924 58.7226 43.6509 59.295 42.8086C59.6635 42.2658 60.381 42.0766 60.9632 42.3809H60.9599ZM58.6378 36.3307C59.2852 36.3307 59.7565 35.6875 59.5314 35.0821C59.2216 34.2465 58.8368 33.5424 58.3786 32.9699C57.7589 32.1968 56.9566 31.5635 55.9684 31.0667C54.7503 30.4547 53.3838 30.1455 52.0205 30.1751C50.0947 30.2162 48.4347 30.8611 47.0372 32.1063C46.2349 32.8202 45.581 33.804 45.0771 35.0591C44.8325 35.6694 45.3005 36.3323 45.9609 36.3323C48.8635 36.3323 55.776 36.3323 58.6395 36.3323L58.6378 36.3307Z" fill="white"/>
<path d="M67.4767 28.1787C67.974 28.1787 68.4257 28.4666 68.6344 28.9173L74.0059 40.5507C74.4625 41.5393 75.8714 41.5361 76.3231 40.5458L81.6261 28.9239C81.8332 28.4699 82.2865 28.1787 82.7855 28.1787H82.8051C83.7329 28.1787 84.3493 29.1361 83.9645 29.9783L75.4116 48.6112H74.9207L66.3172 29.9816C65.9291 29.1394 66.5455 28.1787 67.475 28.1787H67.4767Z" fill="white"/>
<path d="M121.979 28.1794C122.479 28.1794 122.931 28.4788 123.127 28.9377L127.963 40.3589C128.389 41.3624 129.811 41.3722 130.251 40.3754L135.626 28.1777H136.104L141.532 40.4115C141.973 41.4035 143.385 41.3953 143.815 40.4L148.764 28.9295C148.962 28.4738 149.41 28.1777 149.909 28.1777H149.932C150.829 28.1777 151.432 29.094 151.073 29.9148L142.928 48.6102H142.439L137.024 36.5211C136.585 35.5407 135.187 35.5407 134.749 36.5211L129.338 48.6102H128.847L120.836 29.9066C120.485 29.0874 121.087 28.1777 121.98 28.1777L121.979 28.1794Z" fill="white"/>
<path d="M157.034 36.5637C157.034 32.9842 160.023 30.3687 163.643 30.4937C167.09 30.6121 169.758 33.578 169.758 37.0161V47.3269C169.758 48.0359 170.333 48.61 171.044 48.61C171.755 48.61 172.331 48.0359 172.331 47.3269V36.8845C172.331 31.9643 168.471 27.7317 163.537 27.6544C158.535 27.5771 154.457 31.5958 154.457 36.5637V47.3269C154.457 48.0359 155.033 48.61 155.744 48.61C156.455 48.61 157.03 48.0359 157.03 47.3269V36.5637H157.034Z" fill="white"/>
<path d="M79.1871 24.9925H46.955C45.114 25.0172 45.114 22.3983 46.955 22.423H79.1854C81.0151 22.3983 81.033 25.0172 79.1854 24.9925H79.1871Z" fill="white"/>
<path d="M114.587 31.1899C112.518 28.8935 109.878 27.7305 106.737 27.7305C103.596 27.7305 100.935 28.9017 98.8706 31.2096C96.9937 33.2988 96.043 35.8008 96.043 38.645C96.043 41.4892 97.0475 44.0587 99.0271 46.2037C101.017 48.3587 103.609 49.451 106.737 49.451C109.865 49.451 112.439 48.3587 114.429 46.2037C116.409 44.0587 117.413 41.5155 117.413 38.645C117.413 35.7745 116.462 33.2823 114.587 31.1899ZM112.133 43.9337C110.737 45.447 108.92 46.2136 106.734 46.2136C104.547 46.2136 102.717 45.447 101.321 43.9337C99.9321 42.4285 99.2261 40.6437 99.2261 38.6286C99.2261 36.6134 99.893 34.8763 101.211 33.409C102.66 31.7887 104.519 30.9678 106.732 30.9678C108.945 30.9678 110.789 31.7854 112.242 33.3958C113.558 34.8648 114.227 36.6249 114.227 38.6286C114.227 40.6322 113.522 42.4285 112.131 43.9337H112.133Z" fill="white"/>
<path d="M168.552 22.2918H92.6295V18.0313C92.6295 17.2137 91.9724 16.5508 91.1619 16.5508C90.3515 16.5508 89.6943 17.2137 89.6943 18.0313V22.2902H85.4382C84.6539 22.2902 84.0195 22.9317 84.0195 23.7213C84.0195 24.5125 84.6555 25.1524 85.4382 25.1524H89.6943V47.4076C89.6943 48.2251 90.3515 48.8881 91.1619 48.8881C91.9724 48.8881 92.6295 48.2251 92.6295 47.4076V25.1541H168.552C169.337 25.1541 169.971 24.5125 169.971 23.723C169.971 22.9317 169.335 22.2918 168.552 22.2918Z" fill="white"/>
</svg>
