<svg width="65" height="66" viewBox="0 0 65 66" fill="none" xmlns="http://www.w3.org/2000/svg">
<path d="M31.9784 4.53418C17.58 4.53418 18.479 10.8032 18.479 10.8032L18.495 17.2981H32.235V19.2481H13.0377C13.0377 19.2481 3.82422 18.199 3.82422 32.7851C3.82422 47.3716 11.866 46.8544 11.866 46.8544H16.6652V40.0857C16.6652 40.0857 16.4065 32.0116 24.5787 32.0116H38.2062C38.2062 32.0116 45.8627 32.1358 45.8627 24.5822V12.0927C45.8627 12.0927 47.0255 4.53418 31.9784 4.53418ZM24.4021 8.9019C24.7267 8.90159 25.0484 8.9656 25.3484 9.09021C25.6484 9.21481 25.921 9.39761 26.1505 9.62812C26.3802 9.85863 26.5621 10.1323 26.6863 10.4336C26.8104 10.7348 26.8741 11.0576 26.8739 11.3836C26.8741 11.7096 26.8104 12.0325 26.6863 12.3337C26.5621 12.6349 26.3802 12.9086 26.1505 13.1392C25.921 13.3697 25.6484 13.5525 25.3484 13.6771C25.0484 13.8017 24.7267 13.8657 24.4021 13.8654C24.0774 13.8657 23.7558 13.8017 23.4557 13.6771C23.1557 13.5525 22.8831 13.3697 22.6536 13.1392C22.4239 12.9086 22.242 12.6349 22.1178 12.3337C21.9937 12.0325 21.93 11.7096 21.9302 11.3836C21.93 11.0576 21.9937 10.7348 22.1178 10.4336C22.242 10.1323 22.4239 9.85863 22.6536 9.62812C22.8831 9.39761 23.1557 9.21481 23.4557 9.09021C23.7558 8.9656 24.0774 8.90159 24.4021 8.9019Z" fill="url(#paint0_linear_4063_14348)"/>
<path d="M32.3858 61.1834C46.7842 61.1834 45.8852 54.9142 45.8852 54.9142L45.8691 48.4196H32.129V46.4697H51.3263C51.3263 46.4697 60.5398 47.5187 60.5398 32.9322C60.5398 18.3458 52.498 18.8631 52.498 18.8631H47.6987V25.6316C47.6987 25.6316 47.9576 33.7057 39.7853 33.7057H26.1576C26.1576 33.7057 18.5013 33.5815 18.5013 41.1353V53.625C18.5013 53.625 17.3389 61.1834 32.3858 61.1834ZM39.9622 56.816C39.6375 56.8164 39.3159 56.7523 39.0158 56.6278C38.7158 56.5031 38.4433 56.3204 38.2138 56.0899C37.984 55.8592 37.8021 55.5856 37.6779 55.2844C37.5538 54.983 37.4901 54.6603 37.4903 54.3343C37.4899 54.0083 37.5538 53.6853 37.6778 53.3842C37.8019 53.083 37.984 52.8091 38.2136 52.5786C38.4431 52.3482 38.7158 52.1653 39.0158 52.0408C39.3159 51.916 39.6375 51.852 39.9622 51.8524C40.2868 51.852 40.6085 51.916 40.9085 52.0406C41.2085 52.1653 41.4811 52.348 41.7106 52.5786C41.9403 52.8091 42.1223 53.0828 42.2464 53.384C42.3706 53.6853 42.4342 54.0081 42.434 54.3341C42.4342 54.6601 42.3706 54.9829 42.2464 55.2842C42.1223 55.5854 41.9403 55.8591 41.7106 56.0895C41.4811 56.3202 41.2085 56.5029 40.9085 56.6274C40.6085 56.7521 40.2868 56.8164 39.9622 56.816Z" fill="url(#paint1_linear_4063_14348)"/>
<defs>
<linearGradient id="paint0_linear_4063_14348" x1="9.27469" y1="9.62939" x2="37.4934" y2="37.4548" gradientUnits="userSpaceOnUse">
<stop stop-color="#387EB8"/>
<stop offset="1" stop-color="#366994"/>
</linearGradient>
<linearGradient id="paint1_linear_4063_14348" x1="26.5255" y1="27.5703" x2="56.8237" y2="56.0975" gradientUnits="userSpaceOnUse">
<stop stop-color="#FFE052"/>
<stop offset="1" stop-color="#FFC331"/>
</linearGradient>
</defs>
</svg>
